<?xml version="1.0" standalone="no"?>
<!DOCTYPE svg PUBLIC "-//W3C//DTD SVG 1.0//EN" "http://www.w3.org/TR/2001/REC-SVG-20010904/DTD/svg10.dtd">
<svg xmlns="http://www.w3.org/2000/svg" xmlns:xlink="http://www.w3.org/1999/xlink" id="body_1" width="75" height="34">

<defs>
        <clipPath  id="1">

            <path clip-rule="evenodd" d="M6.78125 19L13 19L13 27L6.78125 27L6.78125 19z" />        </clipPath>
        <clipPath  id="2">

            <path clip-rule="evenodd" d="M7 4.769531L27 4.769531L27 27.6875L7 27.6875L7 4.769531z" />        </clipPath>
        <clipPath  id="3">

            <path clip-rule="evenodd" d="M23 6L28.957031 6L28.957031 27L23 27L23 6z" />        </clipPath>
</defs>

<g transform="matrix(1 0 0 0.98550725 0 0)">
    <path d="M17.835938 0.800781C 8.851562 0.800781 1.570312 8.082031 1.570312 17.066406C 1.570312 26.046875 8.851562 33.328125 17.835938 33.328125C 26.816406 33.328125 34.097656 26.046875 34.097656 17.066406C 34.097656 8.082031 26.816406 0.800781 17.835938 0.800781" stroke="none" fill="#5CE1E6" fill-rule="nonzero" />
    <path d="M8.441406 16.5625C 8.75 17 9.144531 17.375 9.613281 17.613281C 9.628906 17.625 9.648438 17.632812 9.667969 17.640625C 9.71875 17.664062 9.761719 17.6875 9.8125 17.707031C 9.902344 17.746094 9.996094 17.777344 10.089844 17.804688C 10.136719 17.816406 10.183594 17.828125 10.234375 17.839844C 10.527344 17.910156 10.835938 17.929688 11.140625 17.902344C 11.40625 17.882812 11.671875 17.835938 11.933594 17.765625C 12 17.75 12.027344 17.734375 12.070312 17.707031C 12.109375 17.679688 12.144531 17.640625 12.175781 17.597656C 12.195312 17.5625 12.214844 17.527344 12.226562 17.492188C 12.023438 17.535156 11.8125 17.5625 11.601562 17.566406C 11.316406 17.570312 11.027344 17.523438 10.753906 17.449219C 10.574219 17.398438 10.398438 17.324219 10.230469 17.238281C 10.183594 17.210938 10.132812 17.1875 10.085938 17.15625C 9.992188 17.097656 9.898438 17.039062 9.8125 16.96875C 9.761719 16.929688 9.714844 16.886719 9.667969 16.847656C 9.546875 16.742188 9.4375 16.625 9.34375 16.503906C 8.980469 16.058594 8.746094 15.535156 8.578125 15.003906C 8.40625 14.476562 8.3125 13.914062 8.3125 13.351562C 8.308594 12.792969 8.402344 12.234375 8.558594 11.699219C 8.71875 11.167969 8.949219 10.652344 9.25 10.179688C 9.375 9.988281 9.515625 9.808594 9.667969 9.636719C 9.714844 9.582031 9.761719 9.53125 9.808594 9.476562C 9.898438 9.386719 9.992188 9.296875 10.085938 9.210938C 10.132812 9.171875 10.183594 9.132812 10.230469 9.09375C 10.394531 8.960938 10.5625 8.832031 10.742188 8.722656L10.742188 8.722656L10.648438 8.53125C 10.507812 8.613281 10.367188 8.703125 10.230469 8.800781C 10.183594 8.832031 10.132812 8.867188 10.085938 8.898438C 9.992188 8.96875 9.898438 9.042969 9.808594 9.117188C 9.765625 9.148438 9.722656 9.183594 9.679688 9.21875C 9.675781 9.222656 9.671875 9.230469 9.667969 9.234375C 8.859375 9.941406 8.234375 10.863281 7.921875 11.894531C 7.84375 12.152344 7.78125 12.417969 7.734375 12.683594C 7.695312 12.953125 7.664062 13.222656 7.648438 13.492188C 7.625 14.035156 7.660156 14.582031 7.785156 15.105469C 7.910156 15.628906 8.128906 16.125 8.441406 16.5625z" stroke="none" fill="#000000" fill-rule="nonzero" />
	<g clip-path="url(#1)" >
        <path d="M7.210938 24.726562C 7.089844 24.355469 7.03125 23.96875 7.015625 23.578125C 6.984375 22.800781 7.179688 22.023438 7.539062 21.339844C 7.71875 20.996094 7.953125 20.675781 8.25 20.417969C 8.394531 20.285156 8.554688 20.171875 8.726562 20.078125C 8.898438 19.980469 9.078125 19.902344 9.265625 19.84375C 9.398438 19.800781 9.53125 19.773438 9.667969 19.746094C 9.714844 19.738281 9.761719 19.730469 9.8125 19.722656C 9.820312 19.722656 9.828125 19.71875 9.835938 19.71875C 9.921875 19.707031 10.003906 19.699219 10.085938 19.695312C 10.136719 19.695312 10.183594 19.695312 10.230469 19.695312C 10.296875 19.695312 10.359375 19.699219 10.425781 19.707031C 10.820312 19.746094 11.210938 19.917969 11.496094 20.203125C 11.78125 20.484375 11.976562 20.839844 12.101562 21.210938C 12.164062 21.398438 12.210938 21.589844 12.238281 21.78125C 12.273438 21.976562 12.277344 22.179688 12.269531 22.375C 12.246094 22.773438 12.171875 23.15625 12.019531 23.527344C 11.941406 23.714844 11.835938 23.898438 11.679688 24.046875C 11.589844 24.136719 11.480469 24.207031 11.359375 24.261719C 11.375 24.269531 11.386719 24.277344 11.402344 24.285156C 11.476562 24.316406 11.539062 24.328125 11.632812 24.308594C 11.828125 24.273438 12.015625 24.203125 12.167969 24.089844C 12.488281 23.863281 12.675781 23.480469 12.777344 23.082031C 12.878906 22.683594 12.894531 22.253906 12.84375 21.839844C 12.800781 21.429688 12.644531 21.035156 12.425781 20.679688C 12.207031 20.332031 11.90625 20.03125 11.542969 19.835938C 11.183594 19.640625 10.769531 19.558594 10.351562 19.550781C 10.3125 19.550781 10.269531 19.550781 10.230469 19.554688C 10.183594 19.554688 10.132812 19.558594 10.085938 19.5625C 9.992188 19.566406 9.902344 19.574219 9.808594 19.585938C 9.761719 19.59375 9.714844 19.601562 9.667969 19.609375C 9.480469 19.640625 9.296875 19.6875 9.121094 19.75C 8.730469 19.890625 8.371094 20.117188 8.0625 20.402344C 7.433594 20.964844 7.058594 21.761719 6.921875 22.59375C 6.78125 23.425781 6.820312 24.304688 7.109375 25.097656C 7.230469 25.421875 7.394531 25.730469 7.589844 26.015625C 7.664062 26.007812 7.730469 26 7.800781 25.992188C 7.753906 25.925781 7.707031 25.859375 7.667969 25.789062C 7.464844 25.457031 7.332031 25.085938 7.210938 24.726562z" stroke="none" fill="#000000" fill-rule="nonzero" />
	</g>
	<g clip-path="url(#2)" >
        <path d="M24.21875 25.402344C 24.183594 25.371094 24.148438 25.335938 24.113281 25.296875C 23.820312 24.996094 23.550781 24.601562 23.3125 24.109375C 22.972656 23.441406 22.664062 22.734375 22.394531 22.007812C 21.589844 19.816406 20.878906 18.289062 20.285156 17.46875L20.285156 17.46875L20.21875 17.375L20.304688 17.300781C 20.988281 16.738281 21.554688 15.996094 21.980469 15.09375C 22.40625 14.1875 22.71875 13.285156 22.898438 12.414062C 23.082031 11.53125 23.269531 10.664062 23.457031 9.839844C 23.488281 9.703125 23.519531 9.574219 23.554688 9.445312C 23.785156 8.601562 24.101562 7.941406 24.507812 7.457031C 24.882812 7.015625 25.328125 6.722656 25.84375 6.585938C 25.824219 6.566406 25.804688 6.550781 25.78125 6.539062C 25.722656 6.507812 25.644531 6.5 25.539062 6.523438C 24.488281 6.734375 23.621094 7.71875 22.960938 9.445312C 22.660156 10.234375 22.371094 11.0625 22.105469 11.902344C 22.015625 12.203125 21.921875 12.484375 21.828125 12.761719C 21.277344 14.375 20.6875 15.621094 20.070312 16.476562C 20.007812 16.566406 19.941406 16.652344 19.878906 16.734375L19.878906 16.734375L19.792969 16.839844L19.695312 16.742188C 19.597656 16.640625 19.496094 16.542969 19.390625 16.457031C 19.351562 16.425781 19.3125 16.394531 19.273438 16.363281C 18.640625 15.859375 17.90625 15.589844 17.085938 15.5625C 17.054688 15.5625 17.027344 15.558594 16.996094 15.558594L16.996094 15.558594L16.90625 15.558594L16.90625 15.515625L16.890625 15.171875L16.855469 14.222656C 16.832031 13.792969 16.808594 13.355469 16.800781 12.921875C 16.796875 12.519531 16.792969 12.113281 16.804688 11.707031C 16.8125 11.503906 16.820312 11.300781 16.832031 11.097656C 16.847656 10.894531 16.867188 10.695312 16.882812 10.492188C 16.910156 10.101562 16.957031 9.710938 17.066406 9.332031C 17.109375 9.167969 17.167969 9.007812 17.234375 8.851562C 17.292969 8.726562 17.355469 8.601562 17.433594 8.484375C 17.558594 8.28125 17.726562 8.101562 17.929688 7.964844C 18.058594 7.875 18.199219 7.808594 18.347656 7.761719C 18.347656 7.761719 18.34375 7.761719 18.34375 7.761719C 18.355469 7.757812 18.367188 7.757812 18.378906 7.757812C 18.914062 7.71875 19.449219 7.652344 19.960938 7.519531C 20.472656 7.382812 20.976562 7.195312 21.394531 6.894531C 21.496094 6.820312 21.59375 6.738281 21.675781 6.644531C 21.761719 6.554688 21.835938 6.453125 21.902344 6.34375C 22.039062 6.128906 22.132812 5.890625 22.148438 5.652344C 22.15625 5.535156 22.144531 5.417969 22.113281 5.300781C 22.078125 5.179688 22.03125 5.070312 21.96875 4.976562C 21.90625 4.886719 21.828125 4.824219 21.738281 4.796875C 21.644531 4.769531 21.53125 4.78125 21.417969 4.808594C 21.304688 4.84375 21.21875 4.898438 21.167969 4.980469C 21.132812 5.035156 21.113281 5.101562 21.105469 5.179688C 21.152344 5.195312 21.199219 5.226562 21.238281 5.261719C 21.320312 5.339844 21.359375 5.441406 21.375 5.53125C 21.402344 5.707031 21.390625 5.847656 21.355469 6.011719C 21.273438 6.332031 21.042969 6.578125 20.800781 6.746094C 20.558594 6.921875 20.292969 7.042969 20.027344 7.144531C 19.757812 7.242188 19.488281 7.324219 19.207031 7.386719C 18.648438 7.503906 18.089844 7.550781 17.53125 7.578125C 16.96875 7.601562 16.410156 7.597656 15.855469 7.585938C 14.949219 7.566406 14.042969 7.589844 13.152344 7.71875L13.152344 7.71875L13.234375 7.878906C 13.316406 7.867188 13.402344 7.859375 13.484375 7.851562C 14.03125 7.796875 14.582031 7.773438 15.128906 7.773438C 15.675781 7.765625 16.222656 7.792969 16.761719 7.796875C 17.210938 7.800781 17.660156 7.792969 18.105469 7.769531C 18 7.796875 17.894531 7.824219 17.796875 7.871094C 17.511719 7.992188 17.273438 8.207031 17.082031 8.453125C 16.890625 8.707031 16.746094 9 16.632812 9.304688C 16.496094 9.671875 16.40625 10.050781 16.339844 10.4375C 16.273438 10.796875 16.234375 11.160156 16.199219 11.519531C 16.15625 11.929688 16.128906 12.339844 16.105469 12.75C 16.101562 12.84375 16.097656 12.941406 16.09375 13.039062C 16.082031 13.203125 16.078125 13.367188 16.074219 13.535156C 16.070312 13.632812 16.066406 13.734375 16.0625 13.832031C 16.050781 14.277344 16.039062 14.722656 16.03125 15.167969C 16.027344 15.289062 16.023438 15.410156 16.019531 15.539062L16.019531 15.539062L16.019531 15.632812L15.925781 15.652344C 15.367188 15.777344 14.945312 16.015625 14.667969 16.359375C 14.636719 16.402344 14.605469 16.445312 14.574219 16.488281C 14.554688 16.515625 14.539062 16.542969 14.519531 16.570312C 14.359375 16.875 14.296875 17.136719 14.339844 17.34375C 14.382812 17.566406 14.449219 17.753906 14.527344 17.902344C 14.75 18.292969 15.121094 18.546875 15.648438 18.671875C 15.703125 18.6875 15.761719 18.695312 15.824219 18.707031C 15.84375 18.710938 15.863281 18.714844 15.886719 18.71875L15.886719 18.71875L15.992188 18.734375L15.988281 18.84375C 15.988281 18.90625 15.984375 18.96875 15.984375 19.03125C 15.980469 19.136719 15.976562 19.238281 15.976562 19.339844C 15.972656 19.367188 15.972656 19.398438 15.972656 19.429688C 15.972656 19.425781 15.976562 19.425781 15.976562 19.425781C 15.964844 19.582031 15.957031 19.742188 15.945312 19.898438C 15.886719 20.660156 15.808594 21.421875 15.679688 22.175781C 15.617188 22.554688 15.542969 22.929688 15.449219 23.304688C 15.355469 23.675781 15.253906 24.046875 15.101562 24.40625C 14.8125 25.125 14.367188 25.78125 13.808594 26.320312C 13.25 26.859375 12.527344 27.242188 11.753906 27.355469C 10.996094 27.46875 10.195312 27.496094 9.453125 27.230469C 9.085938 27.105469 8.734375 26.917969 8.429688 26.671875C 8.355469 26.613281 8.285156 26.546875 8.21875 26.480469C 8.136719 26.484375 8.058594 26.488281 7.984375 26.492188C 8.183594 26.703125 8.402344 26.894531 8.644531 27.054688C 8.996094 27.285156 9.386719 27.449219 9.792969 27.550781C 10.203125 27.652344 10.628906 27.683594 11.050781 27.671875C 11.898438 27.644531 12.753906 27.476562 13.519531 27.121094C 13.90625 26.945312 14.261719 26.714844 14.589844 26.445312C 14.921875 26.179688 15.214844 25.875 15.460938 25.53125C 15.949219 24.839844 16.269531 24.03125 16.496094 23.210938C 16.675781 22.542969 16.804688 21.863281 16.878906 21.175781C 16.886719 21.085938 16.894531 20.992188 16.902344 20.902344C 16.910156 20.828125 16.917969 20.753906 16.921875 20.679688C 16.964844 20.050781 16.984375 19.417969 16.992188 18.785156C 17 18.78125 17.011719 18.777344 17.023438 18.773438L17.023438 18.773438L17.023438 18.707031L17.28125 18.652344C 17.65625 18.578125 18.011719 18.484375 18.339844 18.375C 18.378906 18.359375 18.421875 18.34375 18.460938 18.328125C 18.796875 18.210938 19.109375 18.074219 19.390625 17.917969C 19.464844 17.875 19.539062 17.832031 19.609375 17.789062C 19.628906 17.773438 19.652344 17.761719 19.671875 17.75L19.671875 17.75L19.78125 17.675781L19.84375 17.792969C 20.132812 18.34375 20.421875 19.089844 20.703125 20.011719C 20.984375 20.925781 21.242188 21.753906 21.476562 22.472656C 21.707031 23.1875 21.996094 23.894531 22.332031 24.566406C 22.609375 25.117188 22.96875 25.542969 23.410156 25.835938C 23.460938 25.871094 23.515625 25.902344 23.566406 25.9375C 23.601562 25.957031 23.636719 25.976562 23.671875 25.996094C 24.230469 26.285156 24.917969 26.351562 25.710938 26.191406C 25.914062 26.152344 26.003906 26.078125 26.035156 26C 25.355469 26.097656 24.746094 25.894531 24.21875 25.402344zM15.988281 18.332031L15.984375 18.480469L15.839844 18.449219C 15.78125 18.4375 15.726562 18.421875 15.671875 18.402344C 15.605469 18.382812 15.542969 18.359375 15.480469 18.335938C 15.023438 18.148438 14.738281 17.820312 14.644531 17.347656C 14.613281 17.195312 14.640625 17.019531 14.730469 16.8125C 14.753906 16.761719 14.78125 16.703125 14.808594 16.648438C 14.820312 16.628906 14.828125 16.609375 14.839844 16.589844C 15.011719 16.289062 15.347656 16.058594 15.839844 15.917969L15.839844 15.917969L15.996094 15.871094L15.996094 16.03125C 15.996094 17.007812 15.992188 17.761719 15.988281 18.332031zM19.398438 17.25C 19.1875 17.453125 18.96875 17.625 18.738281 17.78125C 18.660156 17.832031 18.585938 17.878906 18.507812 17.921875C 18.445312 17.957031 18.386719 17.992188 18.324219 18.023438C 18.28125 18.042969 18.238281 18.066406 18.195312 18.085938C 17.894531 18.226562 17.582031 18.332031 17.25 18.398438L17.25 18.398438L17.015625 18.449219L16.996094 18.085938C 17 17.660156 16.96875 17.234375 16.957031 16.808594L16.957031 16.808594L16.917969 15.78125L17.019531 15.785156C 17.027344 15.785156 17.03125 15.789062 17.042969 15.789062C 17.097656 15.789062 17.152344 15.792969 17.207031 15.796875C 17.933594 15.855469 18.566406 16.167969 19.101562 16.726562C 19.136719 16.761719 19.171875 16.800781 19.203125 16.839844C 19.273438 16.917969 19.34375 17.003906 19.410156 17.09375L19.410156 17.09375L19.476562 17.179688z" stroke="none" fill="#000000" fill-rule="nonzero" />
	</g>
    <path d="M10.089844 9.433594C 9.992188 9.523438 9.898438 9.621094 9.8125 9.71875L9.8125 9.71875L9.8125 16.761719C 9.898438 16.835938 9.992188 16.90625 10.089844 16.96875L10.089844 16.96875L10.089844 9.433594z" stroke="none" fill="#000000" fill-rule="nonzero" />
    <path d="M9.8125 19.425781C 9.902344 19.414062 9.996094 19.40625 10.089844 19.402344L10.089844 19.402344L10.089844 17.972656C 9.996094 17.945312 9.902344 17.914062 9.8125 17.878906L9.8125 17.878906L9.8125 19.425781z" stroke="none" fill="#000000" fill-rule="nonzero" />
	<g clip-path="url(#3)" >
        <path d="M26.894531 7.398438C 27.023438 7.015625 27.269531 6.753906 27.625 6.617188C 27.921875 6.503906 28.359375 6.425781 28.957031 6.382812L28.957031 6.382812L28.957031 6.164062C 28.128906 6.210938 27.011719 6.238281 25.628906 6.238281L25.628906 6.238281L24.441406 6.238281L23.804688 7.523438C 24.304688 6.882812 24.875 6.492188 25.507812 6.363281C 25.648438 6.335938 25.765625 6.347656 25.859375 6.394531C 25.898438 6.417969 25.9375 6.449219 25.964844 6.484375C 26.003906 6.527344 26.015625 6.585938 25.996094 6.636719C 25.980469 6.691406 25.9375 6.730469 25.882812 6.746094C 25.339844 6.890625 24.882812 7.21875 24.507812 7.722656L24.507812 7.722656L24.507812 23.492188C 24.507812 24.253906 24.449219 24.796875 24.332031 25.148438C 24.320312 25.183594 24.308594 25.21875 24.292969 25.25C 24.792969 25.734375 25.371094 25.933594 26.015625 25.84375C 26.074219 25.835938 26.132812 25.859375 26.167969 25.90625C 26.203125 25.953125 26.210938 26.015625 26.1875 26.070312C 26.140625 26.175781 26.046875 26.257812 25.910156 26.308594C 27.15625 26.3125 28.179688 26.339844 28.957031 26.386719L28.957031 26.386719L28.957031 26.164062C 28.355469 26.121094 27.917969 26.042969 27.621094 25.929688C 27.265625 25.792969 27.019531 25.53125 26.890625 25.148438C 26.773438 24.796875 26.71875 24.253906 26.71875 23.492188L26.71875 23.492188L26.71875 9.054688C 26.71875 8.292969 26.777344 7.75 26.894531 7.398438z" stroke="none" fill="#000000" fill-rule="nonzero" />
	</g>
    <path d="M19.125 16.992188L18.886719 17.472656C 19.015625 17.375 19.140625 17.269531 19.257812 17.15625C 19.214844 17.101562 19.171875 17.046875 19.125 16.992188z" stroke="none" fill="#000000" fill-rule="nonzero" />
    <path d="M19.464844 16.304688C 19.574219 16.394531 19.679688 16.492188 19.78125 16.59375C 20.550781 15.621094 21.28125 14.027344 21.953125 11.855469C 22.152344 11.226562 22.363281 10.605469 22.582031 10.003906L22.582031 10.003906L19.464844 16.304688z" stroke="none" fill="#000000" fill-rule="nonzero" />
    <path d="M17.171875 18.84375C 17.167969 18.855469 17.160156 18.867188 17.152344 18.878906C 17.144531 19.53125 17.121094 20.125 17.085938 20.695312C 17.074219 20.859375 17.058594 21.019531 17.039062 21.183594L17.039062 21.183594L17.34375 21.796875L17.558594 21.796875L19.273438 18.164062C 18.714844 18.449219 18.058594 18.667969 17.3125 18.816406L17.3125 18.816406L17.171875 18.84375z" stroke="none" fill="#000000" fill-rule="nonzero" />
    <path d="M13.15625 8.050781L13.082031 7.898438L13 7.738281L12.925781 7.589844L12.207031 6.160156C 11.617188 6.210938 10.863281 6.238281 9.964844 6.238281C 8.972656 6.238281 8.171875 6.214844 7.574219 6.167969L7.574219 6.167969L7.574219 6.382812C 8.175781 6.429688 8.613281 6.503906 8.910156 6.617188C 9.265625 6.753906 9.511719 7.015625 9.640625 7.394531C 9.65625 7.445312 9.671875 7.5 9.683594 7.558594C 9.691406 7.578125 9.695312 7.597656 9.699219 7.617188C 9.707031 7.65625 9.71875 7.703125 9.726562 7.75C 9.730469 7.773438 9.734375 7.796875 9.734375 7.816406C 9.746094 7.867188 9.75 7.917969 9.757812 7.972656C 9.761719 7.996094 9.761719 8.015625 9.765625 8.039062C 9.773438 8.117188 9.808594 8.679688 9.8125 8.90625C 9.902344 8.835938 9.996094 8.765625 10.089844 8.703125L10.089844 8.703125L10.089844 7.0625L10.707031 8.316406L10.78125 8.464844L10.871094 8.648438L10.941406 8.792969L14.589844 16.203125C 14.886719 15.867188 15.308594 15.628906 15.859375 15.503906C 15.859375 15.386719 15.863281 15.277344 15.867188 15.164062C 15.875 14.578125 15.890625 14.035156 15.910156 13.527344L15.910156 13.527344L13.15625 8.050781z" stroke="none" fill="#000000" fill-rule="nonzero" />
    <path d="M23.363281 26.003906C 23.085938 26.074219 22.722656 26.128906 22.269531 26.160156L22.269531 26.160156L22.269531 26.378906C 22.734375 26.347656 23.324219 26.328125 24.035156 26.316406C 23.882812 26.269531 23.738281 26.214844 23.601562 26.140625C 23.519531 26.101562 23.441406 26.054688 23.363281 26.003906z" stroke="none" fill="#000000" fill-rule="nonzero" />
    <path d="M17.136719 17.242188C 17.148438 17.515625 17.160156 17.800781 17.15625 18.085938L17.15625 18.085938L17.164062 18.25L17.21875 18.238281C 17.535156 18.175781 17.835938 18.074219 18.121094 17.9375L18.121094 17.9375L17.125 15.949219C 17.109375 15.949219 17.097656 15.945312 17.085938 15.945312L17.085938 15.945312L17.121094 16.800781C 17.125 16.949219 17.128906 17.09375 17.136719 17.242188z" stroke="none" fill="#000000" fill-rule="nonzero" />
    <path d="M14.980469 16.667969C 14.949219 16.726562 14.921875 16.777344 14.898438 16.828125L14.898438 16.828125L15.574219 18.199219C 15.652344 18.230469 15.734375 18.257812 15.824219 18.277344C 15.832031 17.722656 15.835938 17.003906 15.832031 16.085938C 15.410156 16.21875 15.121094 16.414062 14.980469 16.667969z" stroke="none" fill="#000000" fill-rule="nonzero" />
    <path d="M10.277344 24.941406C 10.152344 24.550781 10.089844 23.980469 10.089844 23.199219L10.089844 23.199219L10.089844 19.859375C 10.015625 19.863281 9.941406 19.867188 9.859375 19.878906C 9.84375 19.882812 9.828125 19.882812 9.8125 19.886719L9.8125 19.886719L9.8125 23.199219C 9.8125 23.960938 9.757812 24.523438 9.640625 24.921875C 9.515625 25.347656 9.273438 25.65625 8.917969 25.84375C 8.808594 25.898438 8.6875 25.949219 8.546875 25.992188C 8.410156 26.03125 8.253906 26.066406 8.085938 26.097656C 8.027344 26.105469 7.964844 26.113281 7.902344 26.125C 7.835938 26.132812 7.765625 26.140625 7.691406 26.148438C 7.652344 26.152344 7.617188 26.15625 7.578125 26.15625L7.578125 26.15625L7.578125 26.375C 7.605469 26.371094 7.632812 26.371094 7.664062 26.371094C 7.726562 26.367188 7.792969 26.359375 7.863281 26.355469C 7.9375 26.351562 8.011719 26.347656 8.089844 26.34375C 8.15625 26.339844 8.226562 26.335938 8.300781 26.335938C 8.777344 26.316406 9.332031 26.304688 9.96875 26.304688C 11.066406 26.304688 11.953125 26.332031 12.605469 26.378906L12.605469 26.378906L12.605469 26.160156C 11.925781 26.113281 11.425781 26.011719 11.078125 25.847656C 10.679688 25.664062 10.410156 25.359375 10.277344 24.941406z" stroke="none" fill="#000000" fill-rule="nonzero" />
	<g>
		<g>
			<g>
                <path transform="matrix(1 0 0 1 6.287 28.074)"  d="M1 0.84375L1.5625 0.1875C 1.5625 0.175781 1.566406 0.160156 1.578125 0.140625C 1.597656 0.128906 1.65625 0.0703125 1.75 -0.03125C 1.601562 0.0820312 1.492188 0.15625 1.421875 0.1875L1.421875 0.1875L0.734375 0.609375L0.578125 0.484375L0.875 -0.265625L1.046875 -0.625C 0.953125 -0.5 0.894531 -0.421875 0.875 -0.390625L0.875 -0.390625L0.3125 0.265625L0.109375 0.09375L1.015625 -0.984375L1.3125 -0.734375L1 0.015625L0.984375 0.109375L0.890625 0.28125L1.078125 0.15625L1.796875 -0.3125L2.09375 -0.0625L1.1875 1.015625L1 0.84375z" stroke="none" fill="#000000" fill-rule="nonzero" />
			</g>
		</g>
	</g>
	<g>
		<g>
			<g>
                <path transform="matrix(1 0 0 1 8.011 29.48)"  d="M0.125 0.078125L0.890625 -1.09375L1.8125 -0.484375L1.703125 -0.3125L1.015625 -0.765625L0.8125 -0.453125L1.453125 -0.03125L1.328125 0.15625L0.6875 -0.265625L0.484375 0.03125L1.203125 0.5L1.078125 0.703125L0.125 0.078125z" stroke="none" fill="#000000" fill-rule="nonzero" />
			</g>
		</g>
	</g>
	<g>
		<g>
			<g>
                <path transform="matrix(1 0 0 1 9.598 30.495)"  d="M0.828125 0.171875C 0.890625 0.203125 0.957031 0.222656 1.03125 0.234375C 1.101562 0.253906 1.164062 0.253906 1.21875 0.234375L1.21875 0.234375L1.3125 0.0625L0.984375 -0.09375L1.078125 -0.296875L1.640625 -0.015625L1.40625 0.453125C 1.3125 0.492188 1.203125 0.503906 1.078125 0.484375C 0.953125 0.472656 0.832031 0.4375 0.71875 0.375C 0.507812 0.269531 0.375 0.132812 0.3125 -0.03125C 0.25 -0.207031 0.269531 -0.394531 0.375 -0.59375C 0.476562 -0.8125 0.613281 -0.941406 0.78125 -0.984375C 0.957031 -1.035156 1.148438 -1.007812 1.359375 -0.90625C 1.648438 -0.757812 1.78125 -0.5625 1.75 -0.3125L1.75 -0.3125L1.46875 -0.359375C 1.476562 -0.441406 1.460938 -0.507812 1.421875 -0.5625C 1.390625 -0.625 1.332031 -0.675781 1.25 -0.71875C 1.125 -0.78125 1.007812 -0.789062 0.90625 -0.75C 0.800781 -0.707031 0.710938 -0.609375 0.640625 -0.453125C 0.566406 -0.316406 0.546875 -0.191406 0.578125 -0.078125C 0.617188 0.0234375 0.703125 0.109375 0.828125 0.171875z" stroke="none" fill="#000000" fill-rule="nonzero" />
			</g>
		</g>
	</g>
	<g>
		<g>
			<g>
                <path transform="matrix(1 0 0 1 11.503 31.407)"  d="M0.984375 0.34375L1.1875 -0.234375L0.609375 -0.4375L0.40625 0.140625L0.125 0.046875L0.59375 -1.28125L0.875 -1.1875L0.6875 -0.65625L1.265625 -0.453125L1.453125 -0.984375L1.734375 -0.875L1.265625 0.453125L0.984375 0.34375z" stroke="none" fill="#000000" fill-rule="nonzero" />
			</g>
		</g>
	</g>
	<g>
		<g>
			<g>
                <path transform="matrix(1 0 0 1 13.394 32.046)"  d="M1.09375 0.25L1.046875 -0.125L0.53125 -0.234375L0.328125 0.078125L0.046875 0.015625L0.859375 -1.25L1.203125 -1.171875L1.390625 0.3125L1.09375 0.25zM0.984375 -1L0.984375 -0.984375C 0.960938 -0.960938 0.941406 -0.9375 0.921875 -0.90625C 0.910156 -0.875 0.816406 -0.722656 0.640625 -0.453125L0.640625 -0.453125L1.046875 -0.359375L1 -0.78125L1 -0.921875z" stroke="none" fill="#000000" fill-rule="nonzero" />
			</g>
		</g>
	</g>
	<g>
		<g>
			<g>
                <path transform="matrix(1 0 0 1 15.348 32.456)"  d="M1.46875 -0.578125C 1.445312 -0.429688 1.398438 -0.304688 1.328125 -0.203125C 1.265625 -0.0976562 1.175781 -0.0234375 1.0625 0.015625C 0.957031 0.0664062 0.835938 0.0859375 0.703125 0.078125L0.703125 0.078125L0.140625 0.015625L0.28125 -1.390625L0.78125 -1.34375C 1.019531 -1.3125 1.195312 -1.226562 1.3125 -1.09375C 1.4375 -0.96875 1.488281 -0.796875 1.46875 -0.578125zM1.171875 -0.609375C 1.179688 -0.753906 1.148438 -0.867188 1.078125 -0.953125C 1.015625 -1.046875 0.910156 -1.101562 0.765625 -1.125L0.765625 -1.125L0.5625 -1.140625L0.46875 -0.1875L0.71875 -0.15625C 0.84375 -0.144531 0.941406 -0.175781 1.015625 -0.25C 1.097656 -0.332031 1.148438 -0.453125 1.171875 -0.609375z" stroke="none" fill="#000000" fill-rule="nonzero" />
			</g>
		</g>
	</g>
	<g>
		<g>
			<g>
                <path transform="matrix(1 0 0 1 17.336 32.633)"  d="M1.109375 -0.015625L0.78125 -0.546875L0.4375 -0.53125L0.4375 0L0.140625 0L0.125 -1.40625L0.828125 -1.421875C 0.992188 -1.421875 1.117188 -1.382812 1.203125 -1.3125C 1.296875 -1.238281 1.34375 -1.132812 1.34375 -1C 1.34375 -0.90625 1.316406 -0.820312 1.265625 -0.75C 1.210938 -0.675781 1.140625 -0.628906 1.046875 -0.609375L1.046875 -0.609375L1.4375 -0.015625L1.109375 -0.015625zM1.046875 -0.984375C 1.046875 -1.117188 0.960938 -1.1875 0.796875 -1.1875L0.796875 -1.1875L0.421875 -1.171875L0.421875 -0.765625L0.796875 -0.78125C 0.878906 -0.78125 0.941406 -0.796875 0.984375 -0.828125C 1.023438 -0.867188 1.046875 -0.921875 1.046875 -0.984375z" stroke="none" fill="#000000" fill-rule="nonzero" />
			</g>
		</g>
	</g>
	<g>
		<g>
			<g>
                <path transform="matrix(1 0 0 1 19.31 32.56)"  d="M0.140625 -0.015625L0 -1.421875L0.296875 -1.453125L0.4375 -0.046875L0.140625 -0.015625z" stroke="none" fill="#000000" fill-rule="nonzero" />
			</g>
		</g>
	</g>
	<g>
		<g>
			<g>
                <path transform="matrix(1 0 0 1 21.4 32.257)"  d="M1.078125 -0.28125L0.4375 -0.78125L0.296875 -0.609375L0.421875 -0.109375L0.140625 -0.03125L-0.21875 -1.390625L0.0625 -1.46875L0.234375 -0.84375L0.671875 -1.625L1 -1.71875L0.578125 -0.984375L1.40625 -0.375L1.078125 -0.28125z" stroke="none" fill="#000000" fill-rule="nonzero" />
			</g>
		</g>
	</g>
	<g>
		<g>
			<g>
                <path transform="matrix(1 0 0 1 23.325 31.722)"  d="M1.125 -1.21875C 1.1875 -1.082031 1.207031 -0.945312 1.1875 -0.8125C 1.175781 -0.6875 1.128906 -0.578125 1.046875 -0.484375C 0.972656 -0.398438 0.867188 -0.332031 0.734375 -0.28125C 0.523438 -0.195312 0.335938 -0.191406 0.171875 -0.265625C 0.015625 -0.335938 -0.101562 -0.476562 -0.1875 -0.6875C -0.269531 -0.894531 -0.273438 -1.082031 -0.203125 -1.25C -0.140625 -1.414062 -0.00390625 -1.539062 0.203125 -1.625C 0.410156 -1.707031 0.59375 -1.710938 0.75 -1.640625C 0.914062 -1.566406 1.039062 -1.425781 1.125 -1.21875zM0.859375 -1.109375C 0.804688 -1.253906 0.726562 -1.351562 0.625 -1.40625C 0.519531 -1.457031 0.40625 -1.460938 0.28125 -1.421875C 0.15625 -1.367188 0.078125 -1.285156 0.046875 -1.171875C 0.015625 -1.066406 0.0234375 -0.941406 0.078125 -0.796875C 0.140625 -0.660156 0.222656 -0.5625 0.328125 -0.5C 0.429688 -0.445312 0.539062 -0.445312 0.65625 -0.5C 0.78125 -0.539062 0.859375 -0.613281 0.890625 -0.71875C 0.929688 -0.832031 0.921875 -0.960938 0.859375 -1.109375z" stroke="none" fill="#000000" fill-rule="nonzero" />
			</g>
		</g>
	</g>
	<g>
		<g>
			<g>
                <path transform="matrix(1 0 0 1 25.268 30.905)"  d="M0.125 -0.0625L-0.546875 -1.296875L-0.28125 -1.4375L0.28125 -0.40625L0.9375 -0.765625L1.046875 -0.5625L0.125 -0.0625z" stroke="none" fill="#000000" fill-rule="nonzero" />
			</g>
		</g>
	</g>
	<g>
		<g>
			<g>
                <path transform="matrix(1 0 0 1 26.806 30.048)"  d="M0.109375 -0.078125L-0.6875 -1.234375L0.234375 -1.859375L0.359375 -1.6875L-0.3125 -1.234375L-0.109375 -0.9375L0.515625 -1.359375L0.640625 -1.15625L0.015625 -0.734375L0.234375 -0.4375L0.9375 -0.90625L1.0625 -0.71875L0.109375 -0.078125z" stroke="none" fill="#000000" fill-rule="nonzero" />
			</g>
		</g>
	</g>
	<g>
		<g>
			<g>
                <path transform="matrix(1 0 0 1 28.337 28.96)"  d="M0.25 -0.984375L0.625 -0.546875L0.40625 -0.34375L0.03125 -0.78125L-0.890625 -1.078125L-0.65625 -1.28125L-0.015625 -1.0625L-0.140625 -1.734375L0.078125 -1.9375L0.25 -0.984375z" stroke="none" fill="#000000" fill-rule="nonzero" />
			</g>
		</g>
	</g>
</g>
</svg>