<svg xmlns="http://www.w3.org/2000/svg" width="375" viewBox="0 0 375 375" height="375" version="1.0"><defs><clipPath id="a"><path d="M 72.851562 88 L 139.601562 88 L 139.601562 148 L 72.851562 148 Z M 72.851562 88"/></clipPath><clipPath id="b"><path d="M 234.46875 225.734375 L 301.21875 225.734375 L 301.21875 300.734375 L 234.46875 300.734375 Z M 234.46875 225.734375"/></clipPath><clipPath id="c"><path d="M 229.242188 87.238281 L 301.242188 87.238281 L 301.242188 148.738281 L 229.242188 148.738281 Z M 229.242188 87.238281"/></clipPath><clipPath id="d"><path d="M 243 87.238281 L 287 87.238281 L 287 125 L 243 125 Z M 243 87.238281"/></clipPath><clipPath id="e"><path d="M 72.851562 225.734375 L 144.851562 225.734375 L 144.851562 300.734375 L 72.851562 300.734375 Z M 72.851562 225.734375"/></clipPath><clipPath id="f"><path d="M 149.265625 149.265625 L 225.765625 149.265625 L 225.765625 225.765625 L 149.265625 225.765625 Z M 149.265625 149.265625"/></clipPath></defs><g clip-path="url(#a)"><path fill="#00D8FF" d="M 127.6875 107.609375 C 127 107.371094 126.285156 107.148438 125.546875 106.933594 C 125.667969 106.441406 125.777344 105.957031 125.878906 105.480469 C 127.5 97.632812 126.441406 91.316406 122.816406 89.234375 C 119.339844 87.238281 113.65625 89.320312 107.914062 94.292969 C 107.363281 94.769531 106.808594 95.277344 106.257812 95.808594 C 105.886719 95.457031 105.519531 95.117188 105.15625 94.792969 C 99.136719 89.476562 93.109375 87.234375 89.488281 89.320312 C 86.015625 91.320312 84.988281 97.261719 86.449219 104.695312 C 86.589844 105.414062 86.753906 106.148438 86.941406 106.894531 C 86.085938 107.136719 85.265625 107.390625 84.476562 107.664062 C 77.421875 110.113281 72.917969 113.949219 72.917969 117.929688 C 72.917969 122.039062 77.753906 126.164062 85.101562 128.664062 C 85.679688 128.859375 86.28125 129.046875 86.902344 129.222656 C 86.699219 130.027344 86.523438 130.816406 86.378906 131.589844 C 84.984375 138.894531 86.074219 144.695312 89.535156 146.683594 C 93.113281 148.738281 99.113281 146.625 104.960938 141.539062 C 105.421875 141.140625 105.886719 140.710938 106.347656 140.265625 C 106.953125 140.839844 107.554688 141.386719 108.148438 141.902344 C 113.8125 146.75 119.402344 148.707031 122.863281 146.714844 C 126.433594 144.65625 127.597656 138.425781 126.089844 130.84375 C 125.972656 130.265625 125.839844 129.671875 125.691406 129.070312 C 126.113281 128.949219 126.527344 128.816406 126.929688 128.6875 C 134.566406 126.164062 139.535156 122.097656 139.535156 117.929688 C 139.535156 113.9375 134.882812 110.074219 127.6875 107.609375 Z M 126.035156 125.996094 C 125.671875 126.117188 125.296875 126.234375 124.914062 126.34375 C 124.074219 123.6875 122.933594 120.863281 121.539062 117.941406 C 122.871094 115.09375 123.964844 112.304688 124.78125 109.664062 C 125.464844 109.859375 126.125 110.066406 126.761719 110.285156 C 132.925781 112.398438 136.6875 115.523438 136.6875 117.929688 C 136.6875 120.492188 132.628906 123.820312 126.035156 125.996094 Z M 123.296875 131.394531 C 123.964844 134.746094 124.058594 137.777344 123.617188 140.148438 C 123.222656 142.277344 122.421875 143.695312 121.4375 144.261719 C 119.335938 145.472656 114.847656 143.902344 110.007812 139.753906 C 109.449219 139.277344 108.890625 138.769531 108.332031 138.234375 C 110.207031 136.1875 112.085938 133.8125 113.914062 131.171875 C 117.136719 130.890625 120.175781 130.425781 122.9375 129.789062 C 123.074219 130.335938 123.191406 130.871094 123.296875 131.394531 Z M 95.628906 144.054688 C 93.578125 144.777344 91.945312 144.796875 90.957031 144.230469 C 88.855469 143.023438 87.984375 138.363281 89.175781 132.117188 C 89.3125 131.402344 89.472656 130.667969 89.660156 129.917969 C 92.390625 130.519531 95.410156 130.949219 98.636719 131.210938 C 100.480469 133.792969 102.414062 136.164062 104.355469 138.242188 C 103.933594 138.652344 103.507812 139.039062 103.085938 139.40625 C 100.503906 141.65625 97.914062 143.253906 95.628906 144.054688 Z M 86.019531 125.980469 C 82.773438 124.875 80.089844 123.441406 78.25 121.871094 C 76.597656 120.464844 75.765625 119.066406 75.765625 117.929688 C 75.765625 115.515625 79.382812 112.433594 85.414062 110.339844 C 86.144531 110.085938 86.910156 109.847656 87.707031 109.621094 C 88.539062 112.320312 89.632812 115.144531 90.953125 117.996094 C 89.617188 120.894531 88.507812 123.761719 87.664062 126.496094 C 87.097656 126.332031 86.550781 126.160156 86.019531 125.980469 Z M 89.242188 104.152344 C 87.992188 97.785156 88.820312 92.980469 90.914062 91.773438 C 93.144531 90.488281 98.070312 92.320312 103.265625 96.910156 C 103.597656 97.203125 103.929688 97.511719 104.265625 97.828125 C 102.328125 99.898438 100.417969 102.253906 98.589844 104.820312 C 95.457031 105.109375 92.457031 105.574219 89.699219 106.195312 C 89.527344 105.5 89.375 104.820312 89.242188 104.152344 Z M 117.976562 111.214844 C 117.316406 110.082031 116.640625 108.976562 115.949219 107.898438 C 118.078125 108.167969 120.113281 108.523438 122.023438 108.957031 C 121.453125 110.789062 120.738281 112.703125 119.894531 114.667969 C 119.289062 113.527344 118.648438 112.375 117.976562 111.214844 Z M 106.257812 99.855469 C 107.570312 101.269531 108.886719 102.851562 110.179688 104.566406 C 108.875 104.503906 107.554688 104.472656 106.226562 104.472656 C 104.910156 104.472656 103.601562 104.503906 102.304688 104.5625 C 103.597656 102.863281 104.925781 101.285156 106.257812 99.855469 Z M 94.464844 111.238281 C 93.808594 112.371094 93.179688 113.519531 92.585938 114.667969 C 91.757812 112.710938 91.046875 110.785156 90.46875 108.925781 C 92.367188 108.503906 94.394531 108.15625 96.507812 107.894531 C 95.808594 108.980469 95.125 110.097656 94.464844 111.234375 Z M 96.566406 128.164062 C 94.386719 127.925781 92.328125 127.59375 90.429688 127.183594 C 91.015625 125.292969 91.742188 123.328125 92.589844 121.328125 C 93.183594 122.476562 93.8125 123.621094 94.476562 124.761719 C 95.152344 125.921875 95.851562 127.058594 96.566406 128.164062 Z M 106.335938 136.203125 C 104.988281 134.757812 103.644531 133.152344 102.328125 131.429688 C 103.605469 131.480469 104.90625 131.503906 106.226562 131.503906 C 107.585938 131.503906 108.929688 131.472656 110.246094 131.417969 C 108.953125 133.171875 107.640625 134.777344 106.335938 136.203125 Z M 119.917969 121.226562 C 120.808594 123.25 121.5625 125.203125 122.15625 127.0625 C 120.226562 127.5 118.140625 127.851562 115.941406 128.117188 C 116.636719 127.027344 117.316406 125.898438 117.988281 124.742188 C 118.667969 123.570312 119.3125 122.394531 119.917969 121.226562 Z M 115.523438 123.328125 C 114.480469 125.125 113.410156 126.839844 112.328125 128.457031 C 110.351562 128.597656 108.308594 128.671875 106.226562 128.671875 C 104.152344 128.671875 102.136719 128.609375 100.195312 128.480469 C 99.066406 126.839844 97.972656 125.121094 96.9375 123.34375 L 96.941406 123.34375 C 95.90625 121.566406 94.957031 119.777344 94.097656 117.996094 C 94.957031 116.214844 95.90625 114.421875 96.929688 112.652344 C 97.960938 110.875 99.042969 109.164062 100.160156 107.53125 C 102.140625 107.382812 104.171875 107.304688 106.226562 107.304688 C 108.289062 107.304688 110.324219 107.382812 112.304688 107.535156 C 113.40625 109.152344 114.480469 110.859375 115.515625 112.636719 C 116.558594 114.433594 117.519531 116.210938 118.382812 117.957031 C 117.519531 119.734375 116.5625 121.53125 115.523438 123.328125 Z M 121.390625 91.6875 C 123.625 92.96875 124.492188 98.132812 123.089844 104.90625 C 123 105.339844 122.898438 105.777344 122.789062 106.226562 C 120.027344 105.589844 117.027344 105.117188 113.886719 104.824219 C 112.054688 102.230469 110.15625 99.871094 108.25 97.828125 C 108.765625 97.335938 109.277344 96.871094 109.785156 96.429688 C 114.703125 92.167969 119.300781 90.484375 121.390625 91.6875 Z M 106.226562 112.007812 C 109.511719 112.007812 112.175781 114.65625 112.175781 117.929688 C 112.175781 121.199219 109.511719 123.851562 106.226562 123.851562 C 102.941406 123.851562 100.277344 121.199219 100.277344 117.929688 C 100.277344 114.65625 102.941406 112.007812 106.226562 112.007812 Z M 106.226562 112.007812"/></g><g clip-path="url(#b)"><path fill="#539E43" d="M 267.84375 300.726562 C 266.808594 300.726562 265.84375 300.449219 264.949219 299.972656 L 255.785156 294.542969 C 254.410156 293.789062 255.097656 293.515625 255.511719 293.378906 C 257.371094 292.757812 257.714844 292.621094 259.644531 291.523438 C 259.851562 291.386719 260.128906 291.453125 260.332031 291.59375 L 267.359375 295.78125 C 267.636719 295.917969 267.980469 295.917969 268.1875 295.78125 L 295.675781 279.917969 C 295.953125 279.78125 296.089844 279.503906 296.089844 279.160156 L 296.089844 247.5 C 296.089844 247.15625 295.953125 246.882812 295.675781 246.746094 L 268.1875 230.949219 C 267.914062 230.808594 267.566406 230.808594 267.359375 230.949219 L 239.871094 246.746094 C 239.597656 246.882812 239.457031 247.226562 239.457031 247.5 L 239.457031 279.160156 C 239.457031 279.4375 239.597656 279.78125 239.871094 279.917969 L 247.382812 284.242188 C 251.445312 286.304688 253.996094 283.902344 253.996094 281.496094 L 253.996094 250.246094 C 253.996094 249.835938 254.339844 249.421875 254.820312 249.421875 L 258.335938 249.421875 C 258.75 249.421875 259.164062 249.765625 259.164062 250.246094 L 259.164062 281.496094 C 259.164062 286.921875 256.199219 290.082031 251.03125 290.082031 C 249.449219 290.082031 248.207031 290.082031 244.695312 288.363281 L 237.460938 284.242188 C 235.667969 283.214844 234.566406 281.292969 234.566406 279.230469 L 234.566406 247.570312 C 234.566406 245.507812 235.667969 243.585938 237.460938 242.554688 L 264.949219 226.691406 C 266.671875 225.730469 269.015625 225.730469 270.738281 226.691406 L 298.226562 242.554688 C 300.019531 243.585938 301.121094 245.507812 301.121094 247.570312 L 301.121094 279.230469 C 301.121094 281.289062 300.019531 283.214844 298.226562 284.242188 L 270.738281 300.109375 C 269.84375 300.519531 268.808594 300.722656 267.84375 300.722656 Z M 276.320312 278.957031 C 264.261719 278.957031 261.78125 273.460938 261.78125 268.789062 C 261.78125 268.378906 262.125 267.964844 262.609375 267.964844 L 266.191406 267.964844 C 266.605469 267.964844 266.945312 268.238281 266.945312 268.652344 C 267.496094 272.292969 269.082031 274.078125 276.386719 274.078125 C 282.171875 274.078125 284.652344 272.773438 284.652344 269.683594 C 284.652344 267.898438 283.964844 266.589844 274.941406 265.699219 C 267.429688 264.941406 262.746094 263.296875 262.746094 257.320312 C 262.746094 251.757812 267.429688 248.460938 275.285156 248.460938 C 284.101562 248.460938 288.445312 251.484375 288.996094 258.074219 C 288.996094 258.28125 288.925781 258.488281 288.789062 258.695312 C 288.648438 258.832031 288.445312 258.96875 288.238281 258.96875 L 284.652344 258.96875 C 284.3125 258.96875 283.964844 258.695312 283.898438 258.351562 C 283.070312 254.574219 280.933594 253.339844 275.285156 253.339844 C 268.945312 253.339844 268.1875 255.535156 268.1875 257.183594 C 268.1875 259.175781 269.082031 259.792969 277.625 260.894531 C 286.101562 261.992188 290.097656 263.570312 290.097656 269.476562 C 290.027344 275.519531 285.066406 278.957031 276.320312 278.957031 Z M 276.320312 278.957031"/></g><g clip-path="url(#c)" fill="#41B883"><path d="M 286.824219 87.238281 L 301.214844 87.238281 L 265.242188 148.738281 L 229.269531 87.238281 L 256.789062 87.238281 L 265.242188 101.5 L 273.515625 87.238281 Z M 286.824219 87.238281"/><path d="M 229.269531 87.238281 L 265.242188 148.738281 L 301.214844 87.238281 L 286.824219 87.238281 L 265.242188 124.140625 L 243.476562 87.238281 Z M 229.269531 87.238281"/></g><g clip-path="url(#d)"><path fill="#35495E" d="M 243.476562 87.238281 L 265.242188 124.316406 L 286.824219 87.238281 L 273.515625 87.238281 L 265.242188 101.5 L 256.789062 87.238281 Z M 243.476562 87.238281"/></g><g clip-path="url(#e)"><path fill="#BDBDBD" d="M 108.738281 225.734375 L 72.867188 238.152344 L 78.535156 284.386719 L 108.773438 300.734375 L 139.167969 284.164062 L 144.835938 237.933594 Z M 108.738281 225.734375"/></g><path fill="#B71C1C" d="M 141.09375 240.269531 L 108.851562 229.375 L 108.851562 296.804688 L 135.980469 282.015625 Z M 141.09375 240.269531"/><path fill="#DD2C00" d="M 108.75 229.339844 L 76.605469 240.46875 L 81.722656 282.230469 L 108.769531 296.851562 L 108.851562 296.804688 L 108.851562 229.375 Z M 108.75 229.339844"/><path fill="#BDBDBD" d="M 108.851562 232.546875 L 108.851562 248.753906 L 123.550781 280.28125 L 131.105469 280.28125 Z M 108.851562 232.546875"/><path fill="#EEE" d="M 86.597656 280.28125 L 94.152344 280.28125 L 108.851562 248.753906 L 108.851562 232.546875 Z M 86.597656 280.28125"/><path fill="#BDBDBD" d="M 108.851562 263.234375 L 119.132812 263.234375 L 119.132812 270.054688 L 108.851562 270.054688 Z M 108.851562 263.234375"/><path fill="#EEE" d="M 98.570312 263.234375 L 108.851562 263.234375 L 108.851562 270.054688 L 98.570312 270.054688 Z M 98.570312 263.234375"/><g clip-path="url(#f)"><path d="M 149.265625 149.265625 L 155.640625 219.390625 L 187.515625 225.765625 L 219.390625 219.390625 L 225.765625 149.265625 Z M 184.328125 212.121094 L 167.472656 208.753906 L 166.414062 197.078125 L 172.816406 197.078125 L 173.394531 203.4375 L 177.953125 204.347656 L 177.953125 162.015625 L 184.328125 162.015625 Z M 211.222656 168.390625 L 197.078125 168.390625 L 197.078125 184.328125 L 209.773438 184.328125 L 207.554688 208.757812 L 190.703125 212.121094 L 190.703125 205.621094 L 201.632812 203.441406 L 202.792969 190.703125 L 190.703125 190.703125 L 190.703125 162.015625 L 211.800781 162.015625 Z M 211.222656 168.390625"/></g></svg>