<svg xmlns="http://www.w3.org/2000/svg" width="375" viewBox="0 0 375 375" height="375" version="1.0"><defs><clipPath id="a"><path d="M 70 29.910156 L 306.339844 29.910156 L 306.339844 344 L 70 344 Z M 70 29.910156"/></clipPath><clipPath id="b"><path d="M 70 29.910156 L 306.339844 29.910156 L 306.339844 344 L 70 344 Z M 70 29.910156"/></clipPath></defs><path fill="#FFF" d="M-37.5 -37.5H412.5V412.5H-37.5z"/><path fill="#38B6FF" d="M-37.5 -37.5H412.5V412.5H-37.5z"/><g clip-path="url(#a)"><path fill="#FFF" d="M 306.195312 35.558594 C 306.195312 35.851562 306.195312 36.152344 306.195312 36.445312 C 302.695312 43.703125 299.292969 51.007812 295.679688 58.207031 C 283 83.453125 268.832031 107.851562 253.480469 131.5625 C 238.242188 155.101562 221.894531 177.84375 204.554688 199.875 C 192.269531 215.480469 179.515625 230.695312 166.269531 245.496094 C 157.714844 255.050781 149.011719 264.46875 139.976562 273.566406 C 135.042969 278.542969 130.011719 283.417969 125 288.316406 C 124.566406 288.746094 124.421875 289.097656 124.515625 289.71875 C 125.703125 297.738281 124.363281 305.375 120.953125 312.6875 C 118.148438 318.691406 114.253906 323.945312 109.691406 328.710938 C 104.753906 333.867188 99.25 338.335938 93.183594 342.109375 C 93.101562 342.164062 93.019531 342.246094 92.933594 342.257812 C 92.574219 342.304688 92.214844 342.328125 91.851562 342.355469 C 91.851562 342 91.851562 341.640625 91.851562 341.230469 C 91.746094 341.277344 91.519531 341.375 91.296875 341.480469 C 84.742188 344.582031 77.464844 342.945312 73.019531 337.394531 C 71.476562 335.46875 70.777344 333.246094 70.492188 330.84375 C 70.449219 330.480469 70.378906 330.117188 70.324219 329.75 C 70.324219 328.664062 70.324219 327.570312 70.324219 326.480469 C 70.574219 324.722656 70.816406 322.964844 71.085938 321.210938 C 71.175781 320.625 71.335938 320.050781 71.46875 319.472656 C 71.5625 319.058594 71.632812 318.566406 72.210938 318.648438 C 72.863281 318.742188 72.707031 319.277344 72.679688 319.710938 C 72.628906 320.5 72.554688 321.289062 72.511719 322.078125 C 72.441406 323.328125 72.742188 324.519531 73.429688 325.539062 C 74.292969 326.828125 75.257812 328.058594 76.246094 329.257812 C 76.800781 329.941406 77.554688 330.070312 78.320312 329.597656 C 79.070312 329.136719 79.789062 328.578125 80.386719 327.9375 C 83.242188 324.84375 85.015625 321.117188 86.386719 317.195312 C 87.773438 313.230469 88.964844 309.195312 90.429688 305.261719 C 92.414062 299.929688 94.976562 294.886719 98.628906 290.46875 C 101.605469 286.867188 105.226562 284.144531 109.605469 282.46875 C 110.40625 282.164062 111.277344 282.039062 112.09375 281.757812 C 112.425781 281.644531 112.824219 281.402344 112.96875 281.109375 C 126.316406 254.769531 141.460938 229.492188 157.714844 204.859375 C 174.257812 179.78125 191.90625 155.5 210.347656 131.792969 C 227.632812 109.566406 245.589844 87.890625 264.167969 66.730469 C 274.371094 55.101562 284.753906 43.632812 295.417969 32.417969 C 295.707031 32.113281 295.964844 31.769531 296.289062 31.511719 C 297 30.957031 297.742188 30.441406 298.46875 29.910156 C 298.914062 29.910156 299.359375 29.910156 299.808594 29.910156 C 299.84375 29.941406 299.878906 29.984375 299.921875 29.996094 C 302.914062 30.835938 305.113281 32.566406 306.195312 35.558594"/></g><path d="M 134.140625 249.769531 L 115.351562 281.238281 L 119.996094 284.125 C 119.996094 284.125 125.46875 264.625 134.140625 249.769531 Z M 158.910156 217.574219 C 160.5625 214.6875 198.542969 158.140625 198.542969 158.140625 C 192.351562 161.445312 157.671875 212.621094 155.605469 215.101562 Z M 300.199219 30.402344 C 300.199219 30.402344 219.691406 130.074219 214.117188 141.21875 L 301.28125 31.019531 Z M 113.046875 281.703125 L 123.6875 288.351562 C 123.582031 288.449219 123.527344 288.5 123.527344 288.5 C 129.253906 320.539062 92.050781 341.78125 92.050781 341.78125 C 92.980469 340.914062 93.128906 339.472656 93.128906 339.472656 C 84.769531 344.890625 76.519531 341.726562 72.648438 336 C 68.777344 330.273438 71.917969 319.042969 71.917969 319.042969 C 71.453125 322.757812 71.144531 324.617188 75.480469 329.414062 C 77.703125 331.875 80.5 328.429688 81.753906 326.8125 C 87.03125 320.035156 88.273438 310.777344 91.640625 303.046875 C 94.726562 295.953125 98.78125 288.929688 105.570312 284.824219 C 107.171875 283.855469 108.886719 283.035156 110.667969 282.453125 C 110.90625 282.378906 112.859375 282.070312 112.945312 281.898438 C 112.980469 281.832031 113.011719 281.769531 113.046875 281.703125"/><g clip-path="url(#b)"><path d="M 94.523438 339.097656 C 95.171875 338.902344 95.785156 338.613281 96.488281 338.496094 C 95.667969 339.050781 94.847656 339.605469 94.003906 340.183594 C 93.824219 339.566406 93.972656 339.265625 94.523438 339.097656 Z M 72.851562 327.441406 C 73.726562 330.546875 75.007812 333.449219 77.164062 335.894531 C 80.382812 339.546875 84.488281 340.855469 89.25 340.351562 C 89.828125 340.292969 90.402344 340.203125 90.992188 340.1875 C 89.726562 340.957031 88.351562 341.417969 86.917969 341.632812 C 81.324219 342.464844 76.863281 340.523438 73.5 336.015625 C 72.425781 334.570312 71.988281 332.871094 71.734375 331.113281 C 71.445312 329.128906 71.480469 327.144531 71.707031 325.164062 C 71.773438 325.144531 71.835938 325.121094 71.898438 325.101562 C 72.222656 325.878906 72.628906 326.632812 72.851562 327.441406 Z M 109.234375 285.886719 C 102.734375 289.933594 97.949219 295.519531 94.585938 302.351562 C 92.765625 306.054688 91.003906 309.78125 89.210938 313.5 C 89.109375 313.710938 88.980469 313.910156 88.730469 314.058594 C 89.328125 312.210938 89.902344 310.355469 90.519531 308.511719 C 92.464844 302.71875 95.003906 297.214844 98.699219 292.308594 C 101.734375 288.289062 105.53125 285.25 110.285156 283.488281 C 111.113281 283.183594 111.992188 283.003906 112.863281 282.839844 C 113.132812 282.789062 113.441406 282.984375 113.886719 283.109375 C 112.195312 284.117188 110.699219 284.972656 109.234375 285.886719 Z M 106.59375 329.933594 C 106.679688 329.796875 106.753906 329.652344 106.855469 329.527344 C 111.046875 324.246094 114.113281 318.355469 116.359375 312.011719 C 117.757812 308.078125 119.734375 304.484375 122.71875 301.503906 C 122.851562 301.371094 122.996094 301.246094 123.132812 301.121094 C 123.191406 301.160156 123.253906 301.199219 123.308594 301.242188 C 121.277344 312.84375 114.882812 321.933594 106.59375 329.933594 Z M 112.367188 289.074219 C 108.480469 292.429688 104.667969 295.886719 101.890625 300.246094 C 100.023438 303.179688 98.453125 306.304688 96.800781 309.375 C 94.796875 313.105469 92.8125 316.851562 90.078125 320.105469 C 89.074219 321.300781 87.796875 322.277344 86.578125 323.269531 C 86.152344 323.617188 85.523438 323.71875 84.988281 323.929688 C 84.910156 323.84375 84.832031 323.757812 84.753906 323.667969 C 85.214844 323.039062 85.570312 322.285156 86.148438 321.804688 C 88.265625 320.050781 89.890625 317.902344 91.234375 315.558594 C 93.101562 312.300781 95.066406 309.066406 96.566406 305.632812 C 99.324219 299.335938 103.625 294.355469 108.898438 290.105469 C 110.980469 288.425781 113.09375 286.789062 115.160156 285.09375 C 115.78125 284.585938 116.289062 284.433594 116.890625 285.226562 C 115.375 286.515625 113.863281 287.785156 112.367188 289.074219 Z M 107.65625 290.40625 C 105.789062 292.023438 104.039062 293.78125 102.269531 295.507812 C 99.738281 297.972656 98.265625 301.125 96.65625 304.195312 C 94.671875 307.980469 92.679688 311.769531 90.550781 315.476562 C 89.636719 317.074219 88.363281 318.464844 87.257812 319.953125 C 87.039062 320.246094 86.855469 320.5625 86.65625 320.871094 C 86.554688 320.785156 86.453125 320.699219 86.351562 320.617188 C 86.746094 319.636719 87.007812 318.589844 87.546875 317.699219 C 90.046875 313.585938 91.980469 309.199219 94.023438 304.855469 C 96.128906 300.382812 98.601562 296.144531 102.042969 292.527344 C 105.425781 288.972656 109.414062 286.25 113.722656 283.964844 C 114.511719 283.546875 114.515625 283.546875 115.261719 284.164062 C 112.699219 286.257812 110.125 288.265625 107.65625 290.40625 Z M 84.28125 324.695312 C 84.347656 324.59375 84.519531 324.523438 84.652344 324.515625 C 86.695312 324.328125 88.175781 323.140625 89.492188 321.726562 C 92.089844 318.933594 94.042969 315.6875 95.863281 312.363281 C 97.4375 309.480469 98.941406 306.554688 100.488281 303.652344 C 102.992188 298.957031 106.527344 295.101562 110.457031 291.585938 C 112.523438 289.738281 114.648438 287.953125 116.753906 286.152344 C 117.644531 285.386719 117.660156 285.402344 118.632812 286.289062 C 117.238281 287.621094 115.800781 288.910156 114.464844 290.296875 C 111.753906 293.109375 108.972656 295.871094 106.464844 298.859375 C 104.875 300.753906 103.652344 302.976562 102.410156 305.136719 C 99.527344 310.15625 96.710938 315.21875 93.101562 319.773438 C 91.402344 321.910156 89.570312 323.917969 87.296875 325.476562 C 85.679688 326.589844 84.347656 327.082031 82.652344 327.183594 C 83.226562 326.296875 83.746094 325.488281 84.28125 324.695312 Z M 116.34375 291.53125 C 111.179688 296.835938 106.511719 302.523438 103.226562 309.226562 C 101.585938 312.574219 100.101562 316.003906 97.980469 319.101562 C 96.164062 321.75 94.140625 324.199219 91.570312 326.160156 C 89.136719 328.015625 86.398438 329.15625 83.378906 329.578125 C 82.570312 329.691406 81.734375 329.59375 80.871094 329.445312 C 81.503906 328.683594 81.796875 327.765625 83.0625 327.734375 C 85.101562 327.683594 86.832031 326.636719 88.421875 325.414062 C 91.019531 323.417969 93.066406 320.90625 94.988281 318.28125 C 98.179688 313.921875 100.875 309.246094 103.414062 304.488281 C 105.550781 300.476562 108.5 297.136719 111.652344 293.941406 C 113.84375 291.722656 116.113281 289.582031 118.351562 287.414062 C 119.285156 286.511719 119.292969 286.519531 120.496094 287.402344 C 119.074219 288.8125 117.6875 290.148438 116.34375 291.53125 Z M 74.582031 329.398438 C 76.71875 332.921875 79.476562 335.796875 83.453125 337.148438 C 89.121094 339.070312 94.34375 337.878906 99.09375 334.421875 C 102.683594 331.804688 105.238281 328.285156 107.457031 324.5 C 110.421875 319.449219 112.695312 314.070312 114.722656 308.601562 C 116.5 303.820312 119.496094 299.988281 123.1875 296.597656 C 123.308594 296.484375 123.449219 296.390625 123.792969 296.117188 C 123.671875 297.507812 123.574219 298.695312 123.457031 299.878906 C 123.441406 300.003906 123.3125 300.128906 123.207031 300.226562 C 119.527344 303.488281 117.273438 307.640625 115.648438 312.203125 C 113.207031 319.046875 109.78125 325.339844 104.960938 330.8125 C 102.148438 334.003906 98.949219 336.714844 94.941406 338.300781 C 91.582031 339.628906 88.109375 340.332031 84.488281 339.574219 C 80.1875 338.664062 77.347656 335.914062 75.355469 332.164062 C 74.757812 331.042969 74.304688 329.84375 73.789062 328.679688 C 73.867188 328.636719 73.945312 328.589844 74.023438 328.546875 C 74.207031 328.832031 74.40625 329.109375 74.582031 329.398438 Z M 81.273438 330.089844 C 83.164062 330.609375 85.050781 329.960938 86.863281 329.355469 C 90.828125 328.027344 93.832031 325.390625 96.429688 322.214844 C 99.015625 319.050781 101.011719 315.519531 102.65625 311.804688 C 105.789062 304.734375 110.367188 298.6875 115.648438 293.128906 C 117.238281 291.457031 118.890625 289.855469 120.515625 288.222656 C 120.6875 288.050781 120.871094 287.886719 121.066406 287.703125 C 121.492188 287.980469 121.882812 288.226562 122.347656 288.523438 C 120.886719 290.148438 119.464844 291.730469 118.042969 293.308594 C 114.828125 296.878906 111.582031 300.449219 109.277344 304.699219 C 107.640625 307.710938 106.296875 310.886719 104.824219 313.988281 C 102.855469 318.132812 100.710938 322.171875 97.558594 325.574219 C 93.625 329.820312 88.785156 332.074219 82.972656 332.140625 C 81.46875 332.15625 80.050781 331.765625 78.734375 330.84375 C 79.546875 330.3125 80.128906 329.78125 81.273438 330.089844 Z M 78.171875 331.222656 C 80.328125 332.785156 82.769531 332.9375 85.273438 332.617188 C 91.925781 331.765625 96.839844 328.183594 100.585938 322.789062 C 103.023438 319.277344 104.992188 315.496094 106.566406 311.546875 C 109.316406 304.664062 113.664062 298.898438 118.648438 293.535156 C 119.925781 292.15625 121.167969 290.742188 122.421875 289.339844 C 122.566406 289.175781 122.6875 288.992188 122.820312 288.824219 C 123.476562 289.417969 123.585938 290.859375 123.101562 291.421875 C 120.964844 293.890625 118.808594 296.34375 116.699219 298.839844 C 113.710938 302.378906 111.769531 306.519531 109.886719 310.703125 C 108.179688 314.488281 106.511719 318.292969 104.617188 321.980469 C 102.8125 325.496094 100.359375 328.585938 97.015625 330.769531 C 91.550781 334.339844 85.691406 335.113281 79.542969 332.714844 C 78.699219 332.386719 77.96875 331.773438 77.1875 331.289062 C 77.230469 331.195312 77.273438 331.105469 77.316406 331.007812 C 77.601562 331.078125 77.949219 331.0625 78.171875 331.222656 Z M 100.121094 329.015625 C 103.175781 325.914062 105.390625 322.289062 107.183594 318.375 C 108.480469 315.539062 109.742188 312.695312 110.933594 309.8125 C 113.222656 304.273438 116.628906 299.480469 120.644531 295.082031 C 121.574219 294.058594 122.480469 293.019531 123.398438 291.984375 C 123.472656 292 123.542969 292.007812 123.613281 292.019531 C 123.652344 292.832031 123.65625 293.648438 123.734375 294.457031 C 123.789062 295.054688 123.597656 295.441406 123.140625 295.84375 C 119.140625 299.386719 115.878906 303.445312 114.101562 308.589844 C 113.3125 310.875 112.304688 313.089844 111.34375 315.3125 C 109.304688 320.015625 107.0625 324.613281 103.921875 328.710938 C 101.53125 331.839844 98.746094 334.519531 95.054688 336.074219 C 89.207031 338.535156 82.769531 337.816406 78.03125 332.898438 C 77.929688 332.796875 77.832031 332.6875 77.734375 332.578125 C 83.511719 336.085938 93.839844 335.390625 100.121094 329.015625 Z M 153.015625 214.242188 C 160.699219 220.351562 168.332031 226.414062 176.035156 232.535156 C 175.832031 232.785156 175.65625 233.007812 175.472656 233.222656 C 166.570312 243.496094 157.511719 253.625 148.089844 263.429688 C 142.019531 269.746094 135.835938 275.957031 129.671875 282.191406 C 127.898438 283.988281 126.023438 285.683594 124.214844 287.441406 C 123.84375 287.800781 123.578125 287.886719 123.09375 287.578125 C 120.089844 285.664062 117.058594 283.789062 113.953125 281.851562 C 125.726562 258.566406 138.898438 236.171875 153.015625 214.242188 Z M 172.152344 227.914062 C 185.734375 208.84375 199.285156 189.824219 212.832031 170.804688 C 212.777344 170.765625 212.726562 170.726562 212.671875 170.683594 C 198.6875 189.355469 184.703125 208.023438 170.679688 226.746094 C 165.066406 222.285156 159.394531 217.777344 153.671875 213.230469 C 154.742188 211.585938 155.78125 209.96875 156.832031 208.367188 C 174.554688 181.335938 193.546875 155.222656 213.453125 129.765625 C 228.429688 110.613281 243.90625 91.871094 259.84375 73.503906 C 271.265625 60.34375 282.910156 47.378906 294.886719 34.71875 C 295.839844 33.710938 296.808594 32.71875 297.765625 31.714844 C 298.269531 31.179688 298.882812 31.003906 299.585938 31.167969 C 301.800781 31.683594 303.464844 32.953125 304.636719 34.890625 C 305.039062 35.558594 304.988281 36.210938 304.65625 36.929688 C 298.328125 50.570312 291.566406 63.996094 284.40625 77.214844 C 272.648438 98.914062 259.851562 119.992188 246.160156 140.527344 C 231.769531 162.125 216.5 183.089844 200.25 203.324219 C 192.777344 212.628906 185.058594 221.730469 177.449219 230.925781 C 177.265625 231.148438 177.0625 231.363281 176.824219 231.625 C 175.261719 230.386719 173.742188 229.175781 172.152344 227.914062 Z M 306.195312 35.558594 C 305.113281 32.566406 302.914062 30.835938 299.921875 29.996094 C 299.878906 29.984375 299.84375 29.941406 299.808594 29.910156 C 299.359375 29.910156 298.914062 29.910156 298.46875 29.910156 C 297.742188 30.441406 297 30.957031 296.289062 31.511719 C 295.964844 31.769531 295.707031 32.113281 295.417969 32.417969 C 284.753906 43.632812 274.371094 55.101562 264.167969 66.730469 C 245.589844 87.890625 227.632812 109.566406 210.347656 131.792969 C 191.90625 155.5 174.257812 179.78125 157.714844 204.859375 C 141.460938 229.492188 126.316406 254.769531 112.96875 281.109375 C 112.824219 281.402344 112.425781 281.644531 112.09375 281.757812 C 111.277344 282.039062 110.40625 282.164062 109.605469 282.46875 C 105.226562 284.144531 101.605469 286.867188 98.628906 290.46875 C 94.976562 294.886719 92.414062 299.929688 90.429688 305.261719 C 88.964844 309.195312 87.773438 313.230469 86.386719 317.195312 C 85.015625 321.117188 83.242188 324.84375 80.386719 327.9375 C 79.789062 328.578125 79.070312 329.136719 78.320312 329.597656 C 77.554688 330.070312 76.800781 329.941406 76.246094 329.257812 C 75.257812 328.058594 74.292969 326.828125 73.429688 325.539062 C 72.742188 324.519531 72.441406 323.328125 72.511719 322.078125 C 72.554688 321.289062 72.628906 320.5 72.679688 319.710938 C 72.707031 319.277344 72.863281 318.742188 72.210938 318.648438 C 71.632812 318.566406 71.5625 319.058594 71.46875 319.472656 C 71.335938 320.050781 71.175781 320.625 71.085938 321.210938 C 70.816406 322.964844 70.574219 324.722656 70.324219 326.480469 C 70.324219 327.570312 70.324219 328.664062 70.324219 329.75 C 70.378906 330.117188 70.449219 330.480469 70.492188 330.84375 C 70.777344 333.246094 71.476562 335.46875 73.019531 337.394531 C 77.464844 342.945312 84.742188 344.582031 91.296875 341.480469 C 91.519531 341.375 91.746094 341.277344 91.851562 341.230469 C 91.851562 341.640625 91.851562 342 91.851562 342.355469 C 92.214844 342.328125 92.574219 342.304688 92.933594 342.257812 C 93.019531 342.246094 93.101562 342.164062 93.183594 342.109375 C 99.25 338.335938 104.753906 333.867188 109.691406 328.710938 C 114.253906 323.945312 118.148438 318.691406 120.953125 312.6875 C 124.363281 305.375 125.703125 297.738281 124.515625 289.71875 C 124.421875 289.097656 124.566406 288.746094 125 288.316406 C 130.011719 283.417969 135.042969 278.542969 139.976562 273.566406 C 149.011719 264.46875 157.714844 255.050781 166.269531 245.496094 C 179.515625 230.695312 192.269531 215.480469 204.554688 199.875 C 221.894531 177.84375 238.242188 155.101562 253.480469 131.5625 C 268.832031 107.851562 283 83.453125 295.679688 58.207031 C 299.292969 51.007812 302.695312 43.703125 306.195312 36.445312 C 306.195312 36.152344 306.195312 35.851562 306.195312 35.558594 Z M 168.910156 240.582031 L 149.710938 227.273438 L 150.332031 226.035156 L 170.769531 239.035156 L 168.910156 240.582031"/></g><path fill="#545454" d="M 140.125 248.632812 C 142.121094 248.632812 142.121094 245.535156 140.125 245.535156 C 138.128906 245.535156 138.128906 248.632812 140.125 248.632812"/><path fill="#545454" d="M 137.648438 257.917969 C 139.644531 257.917969 139.644531 254.824219 137.648438 254.824219 C 135.652344 254.824219 135.652344 257.917969 137.648438 257.917969"/><path fill="#545454" d="M 131.453125 263.488281 C 133.453125 263.488281 133.453125 260.394531 131.453125 260.394531 C 129.457031 260.394531 129.457031 263.488281 131.453125 263.488281"/><path fill="#545454" d="M 135.789062 267.824219 C 137.789062 267.824219 137.789062 264.730469 135.789062 264.730469 C 133.792969 264.730469 133.792969 267.824219 135.789062 267.824219"/><path fill="#545454" d="M 128.359375 271.539062 C 130.355469 271.539062 130.355469 268.441406 128.359375 268.441406 C 126.363281 268.441406 126.363281 271.539062 128.359375 271.539062"/><path fill="#545454" d="M 124.640625 283.300781 C 126.636719 283.300781 126.636719 280.207031 124.640625 280.207031 C 122.644531 280.207031 122.644531 283.300781 124.640625 283.300781"/><path fill="#545454" d="M 132.691406 277.730469 C 134.6875 277.730469 134.6875 274.632812 132.691406 274.632812 C 130.695312 274.632812 130.695312 277.730469 132.691406 277.730469"/><path fill="#545454" d="M 140.125 241.824219 C 142.121094 241.824219 142.121094 238.726562 140.125 238.726562 C 138.128906 238.726562 138.128906 241.824219 140.125 241.824219"/><path fill="#545454" d="M 133.3125 254.203125 C 135.308594 254.203125 135.308594 251.109375 133.3125 251.109375 C 131.316406 251.109375 131.316406 254.203125 133.3125 254.203125"/></svg>