<svg xmlns="http://www.w3.org/2000/svg" width="375" viewBox="0 0 375 375" height="375" version="1.0"><defs><clipPath id="a"><path d="M 52.128906 74.035156 L 322.875 74.035156 L 322.875 301.132812 L 52.128906 301.132812 Z M 52.128906 74.035156"/></clipPath></defs><path fill="#FFF" d="M-37.5 -37.5H412.5V412.5H-37.5z"/><path fill="#38B6FF" d="M-37.5 -37.5H412.5V412.5H-37.5z"/><g clip-path="url(#a)"><path d="M 84.839844 215.933594 C 76.855469 215.933594 70.382812 209.453125 70.382812 201.464844 L 70.382812 107.777344 C 70.382812 99.789062 76.855469 93.3125 84.839844 93.3125 L 289.792969 93.3125 C 297.777344 93.3125 304.25 99.789062 304.25 107.777344 L 304.25 201.464844 C 304.25 209.453125 297.777344 215.933594 289.792969 215.933594 Z M 304.492188 253.414062 C 314.644531 253.414062 322.875 245.175781 322.875 235.019531 L 322.875 92.429688 C 322.875 82.269531 314.644531 74.035156 304.492188 74.035156 L 70.511719 74.035156 C 60.359375 74.035156 52.128906 82.269531 52.128906 92.429688 L 52.128906 235.019531 C 52.128906 245.175781 60.359375 253.414062 70.511719 253.414062 L 169.84375 253.414062 L 169.84375 282.804688 L 144.214844 282.804688 C 133.867188 282.804688 125.472656 291.003906 125.425781 301.132812 L 249.910156 301.132812 C 249.863281 291.003906 241.472656 282.804688 231.121094 282.804688 L 205.160156 282.804688 L 205.160156 253.414062 L 304.492188 253.414062"/></g><path d="M 118.367188 159.628906 L 168.492188 181.367188 L 168.492188 167.257812 L 133.5625 153.496094 L 168.492188 140.03125 L 168.492188 125.820312 L 118.367188 147.5625 L 118.367188 159.628906"/><path d="M 195.398438 115.402344 C 193.472656 115.402344 192.175781 115.964844 191.511719 117.097656 C 190.847656 118.226562 190.148438 120.320312 189.421875 123.378906 L 175.519531 180.871094 C 174.851562 183.929688 174.523438 185.839844 174.523438 186.605469 C 174.523438 189.53125 176.214844 190.992188 179.605469 190.992188 C 180.964844 190.992188 182.003906 190.683594 182.71875 190.070312 C 183.433594 189.457031 183.964844 188.597656 184.3125 187.503906 C 184.660156 186.40625 185.066406 184.910156 185.535156 183.015625 L 199.484375 125.523438 C 200.183594 122.796875 200.53125 120.917969 200.53125 119.886719 C 200.53125 118.492188 200.089844 117.394531 199.210938 116.597656 C 198.332031 115.800781 197.058594 115.402344 195.398438 115.402344"/><path d="M 206.511719 140.03125 L 241.539062 153.59375 L 206.511719 167.359375 L 206.511719 181.46875 L 256.636719 159.628906 L 256.636719 147.664062 L 206.511719 126.023438 L 206.511719 140.03125"/></svg>