<svg xmlns="http://www.w3.org/2000/svg" width="375" viewBox="0 0 375 375" height="375" version="1.0"><defs><clipPath id="a"><path d="M 33 37 L 339 37 L 339 342.785156 L 33 342.785156 Z M 33 37"/></clipPath></defs><path fill="#FFF" d="M-37.5 -37.5H412.5V412.5H-37.5z"/><path fill="#38B6FF" d="M-37.5 -37.5H412.5V412.5H-37.5z"/><g clip-path="url(#a)"><path d="M 61.378906 218.773438 C 72.347656 223.304688 84.035156 223.304688 94.527344 223.304688 L 114.558594 223.304688 L 114.558594 239.285156 L 96.671875 256.691406 C 95.71875 257.648438 95.242188 258.839844 95.242188 260.03125 L 95.242188 286.027344 C 95.242188 288.648438 97.390625 290.796875 100.011719 290.796875 C 102.636719 290.796875 104.78125 288.648438 104.78125 286.027344 L 104.78125 262.179688 L 122.429688 244.769531 C 123.382812 243.816406 123.859375 242.621094 123.859375 241.429688 L 123.859375 223.304688 L 138.167969 223.304688 L 138.167969 250.96875 L 120.519531 268.378906 C 119.566406 269.332031 119.089844 270.523438 119.089844 271.71875 L 119.089844 298.1875 C 112.175781 300.335938 107.167969 306.535156 107.167969 314.167969 C 107.167969 323.230469 114.558594 330.859375 123.859375 330.859375 C 133.160156 330.859375 140.554688 323.46875 140.554688 314.167969 C 140.554688 306.535156 135.546875 300.335938 128.628906 298.1875 L 128.628906 273.863281 L 146.277344 256.453125 C 147.230469 255.5 147.707031 254.308594 147.707031 253.117188 L 147.707031 223.304688 L 162.015625 223.304688 L 162.015625 260.507812 L 144.371094 277.917969 C 142.460938 279.824219 142.460938 282.6875 144.371094 284.59375 C 145.324219 285.550781 146.515625 286.027344 147.707031 286.027344 C 148.898438 286.027344 150.09375 285.550781 151.046875 284.59375 L 170.125 265.753906 C 171.078125 264.800781 171.554688 263.609375 171.554688 262.417969 L 171.554688 223.304688 L 181.09375 223.304688 L 181.09375 310.113281 C 174.179688 312.257812 169.171875 318.460938 169.171875 326.089844 C 169.171875 335.152344 176.5625 342.785156 185.863281 342.785156 C 195.164062 342.785156 202.558594 335.390625 202.558594 326.089844 C 202.558594 318.460938 197.550781 312.257812 190.632812 310.113281 L 190.632812 223.304688 L 200.171875 223.304688 L 200.171875 262.417969 C 200.171875 263.609375 200.648438 264.800781 201.605469 265.753906 L 220.683594 284.59375 C 221.636719 285.550781 222.828125 286.027344 224.019531 286.027344 C 225.214844 286.027344 226.40625 285.550781 227.359375 284.59375 C 229.269531 282.6875 229.269531 279.585938 227.359375 277.917969 L 209.949219 260.269531 L 209.949219 223.304688 L 224.261719 223.304688 L 224.261719 252.878906 C 224.261719 254.070312 224.738281 255.261719 225.691406 256.214844 L 243.339844 273.625 L 243.339844 298.1875 C 236.421875 300.335938 231.414062 306.535156 231.414062 314.167969 C 231.414062 323.230469 238.808594 330.859375 248.109375 330.859375 C 257.410156 330.859375 264.800781 323.46875 264.800781 314.167969 C 264.800781 306.535156 259.792969 300.335938 252.878906 298.1875 L 252.878906 271.71875 C 252.878906 270.523438 252.398438 269.332031 251.445312 268.378906 L 233.800781 250.96875 L 233.800781 223.304688 L 248.109375 223.304688 L 248.109375 241.191406 C 248.109375 242.382812 248.585938 243.578125 249.539062 244.53125 L 267.1875 261.941406 L 267.1875 285.789062 C 267.1875 288.410156 269.332031 290.558594 271.957031 290.558594 C 274.578125 290.558594 276.726562 288.410156 276.726562 285.789062 L 276.726562 260.03125 C 276.726562 258.839844 276.25 257.648438 275.292969 256.691406 L 257.648438 239.285156 L 257.648438 223.304688 L 277.917969 223.304688 C 287.695312 223.304688 298.664062 223.304688 308.921875 219.488281 C 329.191406 211.859375 342.070312 188.488281 337.539062 167.261719 C 333.246094 147.46875 314.644531 131.730469 294.132812 131.015625 C 290.078125 116.46875 280.300781 104.066406 267.1875 96.671875 C 257.410156 91.1875 245.960938 88.566406 234.515625 89.28125 C 227.597656 89.757812 221.398438 91.664062 216.390625 93.574219 C 209.710938 68.53125 189.441406 47.546875 164.878906 40.390625 C 138.167969 32.285156 107.40625 40.390625 88.089844 60.1875 C 70.679688 78.070312 62.570312 109.074219 68.53125 135.546875 C 68.769531 136.023438 68.53125 136.976562 67.816406 136.976562 C 64 138.167969 59.710938 139.839844 58.515625 140.316406 C 42.777344 147.945312 33 162.96875 33.476562 179.1875 C 33.953125 196.359375 45.160156 212.335938 61.378906 218.773438 Z M 131.253906 314.167969 C 131.253906 317.980469 128.152344 321.320312 124.097656 321.320312 C 120.042969 321.320312 116.945312 318.21875 116.945312 314.167969 C 116.945312 310.351562 120.042969 307.011719 124.097656 307.011719 C 127.914062 307.25 131.253906 310.351562 131.253906 314.167969 Z M 255.5 314.167969 C 255.5 317.980469 252.398438 321.320312 248.347656 321.320312 C 244.292969 321.320312 241.191406 318.21875 241.191406 314.167969 C 241.191406 310.351562 244.292969 307.011719 248.347656 307.011719 C 252.160156 307.25 255.5 310.351562 255.5 314.167969 Z M 193.257812 325.851562 C 193.257812 329.667969 190.15625 333.007812 186.101562 333.007812 C 182.050781 333.007812 178.949219 329.90625 178.949219 325.851562 C 178.949219 322.035156 182.050781 318.699219 186.101562 318.699219 C 190.15625 318.9375 193.257812 322.035156 193.257812 325.851562 Z M 62.570312 149.140625 C 63.046875 148.898438 66.863281 147.46875 70.441406 146.277344 C 75.6875 144.609375 79.027344 139.121094 77.59375 133.636719 C 72.585938 110.503906 79.742188 82.363281 94.765625 67.101562 C 107.40625 53.984375 125.53125 46.832031 143.652344 46.832031 C 149.855469 46.832031 156.054688 47.785156 162.015625 49.453125 C 183.480469 55.894531 201.367188 74.019531 207.328125 95.957031 C 208.042969 98.582031 209.949219 100.726562 212.335938 101.921875 C 214.71875 103.113281 217.34375 103.351562 219.96875 102.398438 C 224.5 100.726562 229.746094 99.058594 235.46875 98.582031 C 245.007812 97.867188 254.785156 100.011719 262.65625 104.78125 C 273.386719 110.980469 281.734375 121.476562 285.070312 133.398438 C 286.265625 137.214844 289.601562 140.078125 293.894531 140.316406 C 309.875 141.03125 325.136719 153.671875 328.238281 169.171875 C 331.8125 185.863281 321.558594 204.464844 305.582031 210.667969 C 296.996094 214.003906 287.21875 214.003906 277.917969 214.003906 L 94.289062 214.003906 C 84.273438 214.003906 74.019531 214.003906 64.957031 210.429688 C 52.316406 204.941406 43.492188 192.304688 43.015625 178.710938 C 42.777344 166.546875 50.410156 154.863281 62.570312 149.140625 Z M 62.570312 149.140625"/></g><path d="M 97.390625 128.390625 C 97.628906 129.105469 98.105469 130.058594 98.34375 130.777344 C 97.390625 132.683594 96.671875 134.828125 96.671875 136.976562 C 96.671875 140.316406 98.105469 143.652344 100.488281 146.039062 L 107.644531 153.191406 C 110.027344 155.578125 113.367188 157.007812 116.707031 157.007812 C 118.851562 157.007812 121 156.53125 122.90625 155.339844 C 123.621094 155.578125 124.574219 156.054688 125.289062 156.292969 C 126.722656 161.777344 131.730469 165.59375 137.691406 165.59375 L 147.945312 165.59375 C 153.910156 165.59375 158.679688 161.539062 160.347656 156.292969 C 161.0625 156.054688 162.015625 155.578125 162.730469 155.339844 C 164.640625 156.292969 166.785156 157.007812 168.933594 157.007812 C 172.269531 157.007812 175.609375 155.578125 177.996094 153.191406 L 185.148438 146.039062 C 187.535156 143.652344 188.964844 140.316406 188.964844 136.976562 C 188.964844 134.828125 188.488281 132.683594 187.296875 130.777344 C 187.535156 130.058594 188.011719 129.105469 188.25 128.390625 C 193.734375 126.960938 197.550781 121.953125 197.550781 115.988281 L 197.550781 105.734375 C 197.550781 99.773438 193.496094 95.003906 188.25 93.335938 C 188.011719 92.621094 187.535156 91.664062 187.296875 90.949219 C 188.25 89.042969 188.964844 86.894531 188.964844 84.75 C 188.964844 81.410156 187.535156 78.070312 185.148438 75.6875 L 177.996094 68.53125 C 175.609375 66.148438 172.269531 64.71875 168.933594 64.71875 C 166.785156 64.71875 164.640625 65.195312 162.730469 66.386719 C 162.015625 66.148438 161.0625 65.671875 160.347656 65.433594 C 158.917969 59.949219 153.910156 56.132812 147.945312 56.132812 L 137.691406 56.132812 C 131.730469 56.132812 126.960938 60.1875 125.289062 65.433594 C 124.574219 65.671875 123.621094 66.148438 122.90625 66.386719 C 121 65.433594 118.851562 64.71875 116.707031 64.71875 C 113.367188 64.71875 110.027344 66.148438 107.644531 68.53125 L 100.488281 75.6875 C 98.105469 78.070312 96.671875 81.410156 96.671875 84.75 C 96.671875 86.894531 97.148438 89.042969 98.34375 90.949219 C 98.105469 91.664062 97.628906 92.621094 97.390625 93.335938 C 91.902344 94.765625 88.089844 99.773438 88.089844 105.734375 L 88.089844 115.988281 C 87.851562 121.953125 91.902344 126.960938 97.390625 128.390625 Z M 97.628906 105.972656 C 97.628906 104.066406 99.058594 102.636719 100.964844 102.636719 L 104.78125 102.636719 C 105.734375 98.105469 107.644531 93.8125 110.027344 89.757812 L 107.40625 87.132812 C 106.210938 85.941406 106.210938 83.796875 107.40625 82.601562 L 114.558594 75.449219 C 115.273438 74.734375 115.988281 74.496094 116.945312 74.496094 C 117.898438 74.496094 118.613281 74.734375 119.328125 75.449219 L 121.953125 78.070312 C 125.769531 75.6875 130.058594 73.78125 134.828125 72.824219 L 134.828125 69.011719 C 134.828125 67.101562 136.261719 65.671875 138.167969 65.671875 L 147.945312 65.671875 C 149.855469 65.671875 151.285156 67.101562 151.285156 69.011719 L 151.285156 72.824219 C 155.816406 73.78125 160.347656 75.6875 164.164062 78.070312 L 166.785156 75.449219 C 167.5 74.734375 168.21875 74.496094 169.171875 74.496094 C 170.125 74.496094 170.839844 74.734375 171.554688 75.449219 L 178.710938 82.601562 C 179.902344 83.796875 179.902344 85.941406 178.710938 87.132812 L 176.085938 89.757812 C 178.472656 93.574219 180.378906 97.867188 181.332031 102.636719 L 185.148438 102.636719 C 187.058594 102.636719 188.488281 104.066406 188.488281 105.972656 L 188.488281 116.230469 C 188.488281 118.136719 187.058594 119.566406 185.148438 119.566406 L 181.332031 119.566406 C 180.378906 124.097656 178.472656 128.390625 176.085938 132.445312 L 178.710938 135.070312 C 179.902344 136.261719 179.902344 138.40625 178.710938 139.601562 L 171.554688 146.753906 C 170.839844 147.46875 170.125 147.707031 169.171875 147.707031 C 168.21875 147.707031 167.5 147.46875 166.785156 146.753906 L 164.164062 144.128906 C 160.347656 146.515625 156.054688 148.421875 151.285156 149.378906 L 151.285156 153.191406 C 151.285156 155.101562 149.855469 156.53125 147.945312 156.53125 L 137.691406 156.53125 C 135.785156 156.53125 134.351562 155.101562 134.351562 153.191406 L 134.351562 149.378906 C 129.820312 148.421875 125.289062 146.515625 121.476562 144.128906 L 118.851562 146.753906 C 118.136719 147.46875 117.421875 147.707031 116.46875 147.707031 C 115.511719 147.707031 114.796875 147.46875 114.082031 146.753906 L 106.929688 139.601562 C 105.734375 138.40625 105.734375 136.261719 106.929688 135.070312 L 109.550781 132.445312 C 107.167969 128.628906 105.257812 124.335938 104.304688 119.566406 L 100.488281 119.566406 C 98.582031 119.566406 97.148438 118.136719 97.148438 116.230469 L 97.148438 105.972656 Z M 97.628906 105.972656"/><path d="M 142.9375 139.601562 C 158.679688 139.601562 171.554688 126.722656 171.554688 110.980469 C 171.554688 95.242188 158.679688 82.363281 142.9375 82.363281 C 127.199219 82.363281 114.320312 95.242188 114.320312 110.980469 C 114.320312 126.722656 127.199219 139.601562 142.9375 139.601562 Z M 142.9375 91.902344 C 153.429688 91.902344 162.015625 100.488281 162.015625 110.980469 C 162.015625 121.476562 153.429688 130.058594 142.9375 130.058594 C 132.445312 130.058594 123.859375 121.476562 123.859375 110.980469 C 123.859375 100.488281 132.445312 91.902344 142.9375 91.902344 Z M 142.9375 91.902344"/><path d="M 195.402344 146.753906 L 195.402344 153.671875 C 195.402344 156.769531 196.597656 159.871094 198.742188 162.015625 C 199.695312 162.96875 200.648438 163.6875 201.84375 164.164062 C 200.410156 168.21875 201.367188 172.988281 204.703125 176.324219 L 209.710938 181.332031 C 211.859375 183.480469 214.960938 184.671875 218.058594 184.671875 C 219.488281 184.671875 220.683594 184.433594 221.875 183.957031 C 222.351562 185.148438 223.304688 186.101562 224.019531 187.058594 C 226.167969 189.203125 229.269531 190.394531 232.367188 190.394531 L 239.285156 190.394531 C 242.382812 190.394531 245.484375 189.203125 247.628906 187.058594 C 248.585938 186.101562 249.300781 185.148438 249.777344 183.957031 C 250.96875 184.433594 252.160156 184.671875 253.59375 184.671875 C 256.691406 184.671875 259.792969 183.480469 261.941406 181.332031 L 266.949219 176.324219 C 270.285156 172.988281 271.238281 168.21875 269.808594 164.164062 C 271 163.6875 271.957031 162.730469 272.910156 162.015625 C 275.054688 159.871094 276.25 156.769531 276.25 153.671875 L 276.25 146.753906 C 276.25 143.652344 275.054688 140.554688 272.910156 138.40625 C 271.957031 137.453125 271 136.738281 269.808594 136.261719 C 271.238281 132.207031 270.285156 127.4375 266.949219 124.097656 L 261.941406 119.089844 C 259.792969 116.945312 256.691406 115.75 253.59375 115.75 C 252.160156 115.75 250.96875 115.988281 249.777344 116.46875 C 249.300781 115.273438 248.347656 114.320312 247.628906 113.367188 C 245.484375 111.21875 242.382812 110.027344 239.285156 110.027344 L 232.367188 110.027344 C 229.269531 110.027344 226.167969 111.21875 224.019531 113.367188 C 223.066406 114.320312 222.351562 115.273438 221.875 116.46875 C 220.683594 115.988281 219.488281 115.75 218.058594 115.75 C 214.960938 115.75 211.859375 116.945312 209.710938 119.089844 L 204.703125 124.097656 C 201.367188 127.4375 200.410156 132.207031 201.84375 136.261719 C 200.648438 136.738281 199.695312 137.691406 198.742188 138.40625 C 196.597656 140.792969 195.402344 143.652344 195.402344 146.753906 Z M 204.941406 146.753906 C 204.941406 145.5625 205.898438 144.609375 207.089844 144.609375 L 209.710938 144.609375 C 210.429688 141.507812 211.621094 138.644531 213.289062 135.785156 L 211.382812 133.875 C 210.429688 132.921875 210.429688 131.492188 211.382812 130.777344 L 216.390625 125.769531 C 216.867188 125.289062 217.34375 125.050781 218.058594 125.050781 C 218.535156 125.050781 219.25 125.289062 219.730469 125.769531 L 221.636719 127.675781 C 224.261719 126.007812 227.359375 124.8125 230.460938 124.097656 L 230.460938 121.476562 C 230.460938 120.28125 231.414062 119.328125 232.605469 119.328125 L 239.523438 119.328125 C 240.714844 119.328125 241.667969 120.28125 241.667969 121.476562 L 241.667969 124.097656 C 244.769531 124.8125 247.628906 126.007812 250.492188 127.675781 L 252.398438 125.769531 C 252.878906 125.289062 253.355469 125.050781 254.070312 125.050781 C 254.785156 125.050781 255.261719 125.289062 255.738281 125.769531 L 260.746094 130.777344 C 261.699219 131.730469 261.699219 133.160156 260.746094 133.875 L 258.839844 135.785156 C 260.507812 138.40625 261.699219 141.507812 262.417969 144.609375 L 264.800781 144.609375 C 265.992188 144.609375 266.949219 145.5625 266.949219 146.753906 L 266.949219 153.671875 C 266.949219 154.863281 265.992188 155.816406 264.800781 155.816406 L 262.179688 155.816406 C 261.460938 158.917969 260.269531 161.777344 258.601562 164.640625 L 260.507812 166.546875 C 261.460938 167.5 261.460938 168.933594 260.507812 169.648438 L 255.5 174.65625 C 255.023438 175.132812 254.546875 175.371094 253.832031 175.371094 C 253.117188 175.371094 252.640625 175.132812 252.160156 174.65625 L 250.492188 172.988281 C 247.871094 174.65625 244.769531 175.847656 241.667969 176.5625 L 241.667969 179.1875 C 241.667969 180.378906 240.714844 181.332031 239.523438 181.332031 L 232.605469 181.332031 C 231.414062 181.332031 230.460938 180.378906 230.460938 179.1875 L 230.460938 176.5625 C 227.359375 175.847656 224.5 174.65625 221.636719 172.988281 L 219.730469 174.894531 C 219.25 175.371094 218.773438 175.609375 218.058594 175.609375 C 217.582031 175.609375 216.867188 175.371094 216.390625 174.894531 L 211.382812 169.886719 C 210.429688 168.933594 210.429688 167.5 211.382812 166.785156 L 213.289062 164.878906 C 211.621094 162.253906 210.429688 159.15625 209.710938 156.054688 L 207.089844 156.054688 C 205.898438 156.054688 204.941406 155.101562 204.941406 153.910156 Z M 204.941406 146.753906"/><path d="M 235.945312 167.023438 C 245.246094 167.023438 252.640625 159.632812 252.640625 150.332031 C 252.640625 141.03125 245.246094 133.636719 235.945312 133.636719 C 226.644531 133.636719 219.25 141.03125 219.25 150.332031 C 219.25 159.632812 226.882812 167.023438 235.945312 167.023438 Z M 235.945312 143.175781 C 240 143.175781 243.101562 146.277344 243.101562 150.332031 C 243.101562 154.386719 240 157.484375 235.945312 157.484375 C 231.890625 157.484375 228.789062 154.386719 228.789062 150.332031 C 228.789062 146.277344 232.128906 143.175781 235.945312 143.175781 Z M 235.945312 143.175781"/><path d="M 73.300781 199.21875 C 85.226562 199.21875 94.765625 189.679688 94.765625 177.757812 C 94.765625 165.832031 85.226562 156.292969 73.300781 156.292969 C 61.378906 156.292969 51.839844 165.832031 51.839844 177.757812 C 51.839844 189.441406 61.378906 199.21875 73.300781 199.21875 Z M 73.300781 165.832031 C 79.980469 165.832031 85.226562 171.078125 85.226562 177.757812 C 85.226562 184.433594 79.980469 189.679688 73.300781 189.679688 C 66.625 189.679688 61.378906 184.433594 61.378906 177.757812 C 61.378906 171.078125 66.625 165.832031 73.300781 165.832031 Z M 73.300781 165.832031"/><path d="M 297.949219 199.21875 C 309.875 199.21875 319.414062 189.679688 319.414062 177.757812 C 319.414062 165.832031 309.875 156.292969 297.949219 156.292969 C 286.027344 156.292969 276.488281 165.832031 276.488281 177.757812 C 276.25 189.441406 286.027344 199.21875 297.949219 199.21875 Z M 297.949219 165.832031 C 304.628906 165.832031 309.875 171.078125 309.875 177.757812 C 309.875 184.433594 304.628906 189.679688 297.949219 189.679688 C 291.273438 189.679688 286.027344 184.433594 286.027344 177.757812 C 285.789062 171.078125 291.273438 165.832031 297.949219 165.832031 Z M 297.949219 165.832031"/></svg>