<svg xmlns="http://www.w3.org/2000/svg" width="375" viewBox="0 0 375 375" height="375" version="1.0"><defs><clipPath id="a"><path d="M 53 38.214844 L 322 38.214844 L 322 336.714844 L 53 336.714844 Z M 53 38.214844"/></clipPath><clipPath id="b"><path d="M 53 38.214844 L 319 38.214844 L 319 262 L 53 262 Z M 53 38.214844"/></clipPath></defs><path fill="#FFF" d="M-37.5 -37.5H412.5V412.5H-37.5z"/><path fill="#38B6FF" d="M-37.5 -37.5H412.5V412.5H-37.5z"/><g clip-path="url(#a)"><path fill="#A6A6A6" d="M 179.640625 40.945312 C 184.441406 38.25 190.351562 38.25 195.144531 40.945312 C 218.863281 54.265625 290.238281 94.355469 313.964844 107.675781 C 318.765625 110.363281 321.71875 115.34375 321.71875 120.734375 C 321.71875 147.371094 321.71875 227.550781 321.71875 254.1875 C 321.71875 259.578125 318.765625 264.558594 313.964844 267.253906 C 290.246094 280.574219 218.871094 320.664062 195.144531 333.984375 C 190.34375 336.679688 184.433594 336.679688 179.640625 333.984375 C 155.921875 320.664062 84.546875 280.574219 60.824219 267.253906 C 56.027344 264.558594 53.074219 259.585938 53.074219 254.195312 C 53.074219 227.558594 53.074219 147.378906 53.074219 120.742188 C 53.074219 115.351562 56.027344 110.371094 60.828125 107.675781 C 84.539062 94.355469 155.929688 54.265625 179.640625 40.945312 Z M 179.640625 40.945312" fill-rule="evenodd"/></g><g clip-path="url(#b)"><path fill="#737373" d="M 55.222656 261.058594 C 53.34375 258.539062 53.074219 256.148438 53.074219 252.929688 C 53.074219 226.445312 53.074219 146.730469 53.074219 120.238281 C 53.074219 114.878906 56.023438 109.925781 60.808594 107.25 C 84.441406 94.011719 155.578125 54.152344 179.210938 40.902344 C 183.996094 38.222656 190.480469 38.277344 195.265625 40.960938 C 218.898438 54.199219 289.792969 93.71875 313.425781 106.960938 C 315.335938 108.035156 316.792969 109.332031 318.09375 111.035156 Z M 55.222656 261.058594" fill-rule="evenodd"/></g><path d="M 187.398438 88.4375 C 242.023438 88.4375 286.371094 132.808594 286.371094 187.464844 C 286.371094 242.121094 242.023438 286.492188 187.398438 286.492188 C 132.769531 286.492188 88.421875 242.121094 88.421875 187.464844 C 88.421875 132.808594 132.769531 88.4375 187.398438 88.4375 Z M 187.398438 137.949219 C 214.707031 137.949219 236.882812 160.132812 236.882812 187.464844 C 236.882812 214.789062 214.707031 236.980469 187.398438 236.980469 C 160.085938 236.980469 137.910156 214.789062 137.910156 187.464844 C 137.910156 160.132812 160.078125 137.949219 187.398438 137.949219 Z M 187.398438 137.949219" fill-rule="evenodd"/><path fill="#545454" d="M 318.078125 111.105469 C 321.726562 114.523438 321.65625 119.671875 321.65625 123.726562 C 321.65625 150.570312 321.429688 226.921875 321.71875 253.765625 C 321.75 256.566406 320.820312 259.515625 319.4375 261.734375 L 184.519531 187.464844 Z M 318.078125 111.105469" fill-rule="evenodd"/></svg>