<svg xmlns="http://www.w3.org/2000/svg" width="375" viewBox="0 0 375 375" height="375" version="1.0"><defs><clipPath id="a"><path d="M 48 33.066406 L 327 33.066406 L 327 342 L 48 342 Z M 48 33.066406"/></clipPath><clipPath id="b"><path d="M 48 33.066406 L 324 33.066406 L 324 264 L 48 264 Z M 48 33.066406"/></clipPath></defs><path fill="#FFF" d="M-37.5 -37.5H412.5V412.5H-37.5z"/><path fill="#38B6FF" d="M-37.5 -37.5H412.5V412.5H-37.5z"/><g clip-path="url(#a)"><path fill="#A6A6A6" d="M 179.578125 35.894531 C 184.550781 33.105469 190.675781 33.105469 195.640625 35.894531 C 220.21875 49.683594 294.171875 91.183594 318.753906 104.972656 C 323.726562 107.753906 326.789062 112.910156 326.789062 118.488281 C 326.789062 146.066406 326.789062 229.0625 326.789062 256.636719 C 326.789062 262.21875 323.726562 267.371094 318.753906 270.164062 C 294.179688 283.949219 220.226562 325.453125 195.640625 339.242188 C 190.667969 342.03125 184.542969 342.03125 179.578125 339.242188 C 155.003906 325.453125 81.046875 283.949219 56.464844 270.164062 C 51.5 267.371094 48.4375 262.226562 48.4375 256.644531 C 48.4375 229.070312 48.4375 146.070312 48.4375 118.496094 C 48.4375 112.917969 51.5 107.761719 56.472656 104.972656 C 81.039062 91.183594 155.007812 49.683594 179.578125 35.894531 Z M 179.578125 35.894531" fill-rule="evenodd"/></g><g clip-path="url(#b)"><path fill="#545454" d="M 50.664062 263.75 C 48.714844 261.140625 48.4375 258.667969 48.4375 255.335938 C 48.4375 227.921875 48.4375 145.398438 48.4375 117.976562 C 48.4375 112.425781 51.492188 107.300781 56.449219 104.53125 C 80.9375 90.824219 154.644531 49.566406 179.132812 35.851562 C 184.089844 33.074219 190.808594 33.132812 195.765625 35.910156 C 220.253906 49.617188 293.710938 90.523438 318.199219 104.234375 C 320.175781 105.34375 321.683594 106.6875 323.03125 108.449219 Z M 50.664062 263.75" fill-rule="evenodd"/></g><path d="M 187.613281 85.054688 C 244.214844 85.054688 290.164062 130.988281 290.164062 187.566406 C 290.164062 244.148438 244.214844 290.078125 187.613281 290.078125 C 131.011719 290.078125 85.0625 244.148438 85.0625 187.566406 C 85.0625 130.988281 131.011719 85.054688 187.613281 85.054688 Z M 187.613281 136.3125 C 215.910156 136.3125 238.890625 159.273438 238.890625 187.566406 C 238.890625 215.851562 215.910156 238.824219 187.613281 238.824219 C 159.316406 238.824219 136.339844 215.851562 136.339844 187.566406 C 136.339844 159.273438 159.308594 136.3125 187.613281 136.3125 Z M 187.613281 136.3125" fill-rule="evenodd"/><path fill="#737373" d="M 323.015625 108.523438 C 326.796875 112.058594 326.722656 117.390625 326.722656 121.585938 C 326.722656 149.375 326.488281 228.410156 326.789062 256.199219 C 326.820312 259.097656 325.859375 262.152344 324.425781 264.453125 L 184.632812 187.566406 Z M 323.015625 108.523438" fill-rule="evenodd"/><path d="M 238.890625 165.601562 L 253.539062 165.601562 L 253.539062 209.535156 L 238.890625 209.535156 Z M 290.164062 165.601562 L 304.816406 165.601562 L 304.816406 209.535156 L 290.164062 209.535156 Z M 290.164062 165.601562" fill-rule="evenodd"/><path d="M 224.238281 180.246094 L 268.1875 180.246094 L 268.1875 194.890625 L 224.238281 194.890625 Z M 275.515625 180.246094 L 319.464844 180.246094 L 319.464844 194.890625 L 275.515625 194.890625 Z M 275.515625 180.246094" fill-rule="evenodd"/></svg>