<svg xmlns="http://www.w3.org/2000/svg" width="375" viewBox="0 0 375 375" height="375" version="1.0"><defs><clipPath id="a"><path d="M 57.609375 47.242188 L 317.109375 47.242188 L 317.109375 337.492188 L 57.609375 337.492188 Z M 57.609375 47.242188"/></clipPath></defs><g clip-path="url(#a)"><path fill="#0277BD" d="M 317.074219 47.242188 L 57.644531 47.242188 L 80.535156 306.941406 L 187.359375 337.492188 L 294.183594 306.941406 Z M 317.074219 47.242188"/></g><path fill="#039BE5" d="M 187.359375 70.15625 L 187.359375 313.8125 L 272.820312 289.371094 L 291.894531 70.15625 Z M 187.359375 70.15625"/><path fill="#FFF" d="M 256.796875 108.347656 L 187.359375 108.347656 L 187.359375 138.902344 L 224.746094 138.902344 L 222.457031 169.453125 L 187.359375 169.453125 L 187.359375 200.003906 L 220.933594 200.003906 L 218.644531 234.378906 L 187.359375 245.070312 L 187.359375 277.152344 L 247.636719 257.292969 L 252.980469 169.453125 Z M 256.796875 108.347656"/><path fill="#EEE" d="M 187.359375 108.347656 L 187.359375 138.902344 L 119.449219 138.902344 L 117.160156 108.347656 Z M 152.261719 169.453125 L 153.785156 200.003906 L 187.359375 200.003906 L 187.359375 169.453125 Z M 155.3125 215.28125 L 124.792969 215.28125 L 127.082031 257.292969 L 187.359375 277.152344 L 187.359375 245.070312 L 156.074219 234.378906 Z M 155.3125 215.28125"/></svg>