<svg xmlns="http://www.w3.org/2000/svg" width="375" viewBox="0 0 375 375" height="375" version="1.0"><defs><clipPath id="a"><path d="M 57 45 L 318.519531 45 L 318.519531 342 L 57 342 Z M 57 45"/></clipPath></defs><g clip-path="url(#a)"><path fill="#E44D26" d="M 80.785156 311.832031 L 57.003906 45.699219 L 318.285156 45.699219 L 294.480469 311.78125 L 187.484375 341.386719 Z M 80.785156 311.832031"/></g><path fill="#F16529" d="M 187.644531 318.765625 L 274.109375 294.851562 L 294.445312 67.457031 L 187.644531 67.457031 Z M 187.644531 318.765625"/><path fill="#EBEBEB" d="M 187.644531 166.167969 L 144.359375 166.167969 L 141.371094 132.742188 L 187.644531 132.742188 L 187.644531 100.105469 L 105.625 100.105469 L 106.402344 108.851562 L 114.441406 198.804688 L 187.644531 198.804688 Z M 187.644531 250.929688 L 187.496094 250.96875 L 151.074219 241.148438 L 148.742188 215.117188 L 115.910156 215.117188 L 120.492188 266.367188 L 187.496094 284.921875 L 187.644531 284.886719 Z M 187.644531 250.929688"/><path fill="#FFF" d="M 187.535156 166.167969 L 187.535156 198.804688 L 227.808594 198.804688 L 224.007812 241.136719 L 187.523438 250.957031 L 187.523438 284.910156 L 254.578125 266.367188 L 255.070312 260.847656 L 262.761719 174.914062 L 263.566406 166.15625 L 254.75 166.15625 Z M 187.535156 100.105469 L 187.535156 132.742188 L 266.539062 132.742188 L 267.195312 125.398438 L 268.6875 108.851562 L 269.46875 100.09375 Z M 187.535156 100.105469"/></svg>