<svg xmlns="http://www.w3.org/2000/svg" width="375" viewBox="0 0 375 375" height="375" version="1.0"><defs><clipPath id="a"><path d="M 148 66.128906 L 227 66.128906 L 227 92 L 148 92 Z M 148 66.128906"/></clipPath><clipPath id="b"><path d="M 51.316406 264 L 130 264 L 130 291 L 51.316406 291 Z M 51.316406 264"/></clipPath><clipPath id="c"><path d="M 51.316406 284 L 130 284 L 130 309.128906 L 51.316406 309.128906 Z M 51.316406 284"/></clipPath><clipPath id="d"><path d="M 148 284 L 227 284 L 227 309.128906 L 148 309.128906 Z M 148 284"/></clipPath><clipPath id="e"><path d="M 244 264 L 323.566406 264 L 323.566406 291 L 244 291 Z M 244 264"/></clipPath><clipPath id="f"><path d="M 244 284 L 323.566406 284 L 323.566406 309.128906 L 244 309.128906 Z M 244 284"/></clipPath></defs><g clip-path="url(#a)"><path fill="#035BDA" d="M 162.023438 88.199219 C 168.867188 90.058594 177.742188 91.179688 187.445312 91.179688 C 197.140625 91.179688 206.015625 90.058594 212.863281 88.199219 C 221.320312 85.898438 226.683594 82.476562 226.683594 78.652344 C 226.683594 71.742188 209.117188 66.128906 187.445312 66.128906 C 165.769531 66.128906 148.203125 71.742188 148.203125 78.652344 C 148.203125 82.476562 153.566406 85.898438 162.023438 88.199219"/></g><path fill="#035BDA" d="M 187.445312 110.257812 C 209.117188 110.257812 226.683594 104.65625 226.683594 97.734375 L 226.683594 85.71875 C 224.207031 87.875 220.1875 89.984375 213.8125 91.714844 C 206.441406 93.71875 197.074219 94.824219 187.445312 94.824219 C 177.8125 94.824219 168.445312 93.71875 161.070312 91.714844 C 154.699219 89.984375 150.679688 87.875 148.203125 85.71875 L 148.203125 97.734375 C 148.203125 104.65625 165.769531 110.257812 187.445312 110.257812"/><g clip-path="url(#b)"><path fill="#035BDA" d="M 90.675781 264.996094 C 69 264.996094 51.433594 270.605469 51.433594 277.519531 C 51.433594 281.34375 56.796875 284.765625 65.253906 287.0625 C 72.101562 288.921875 80.976562 290.042969 90.675781 290.042969 C 100.371094 290.042969 109.246094 288.921875 116.09375 287.0625 C 124.550781 284.765625 129.914062 281.34375 129.914062 277.519531 C 129.914062 270.605469 112.347656 264.996094 90.675781 264.996094"/></g><g clip-path="url(#c)"><path fill="#035BDA" d="M 90.675781 293.6875 C 81.042969 293.6875 71.675781 292.585938 64.300781 290.582031 C 57.929688 288.851562 53.910156 286.742188 51.433594 284.585938 L 51.433594 296.601562 C 51.433594 303.519531 69 309.125 90.675781 309.125 C 112.347656 309.125 129.914062 303.519531 129.914062 296.601562 L 129.914062 284.585938 C 127.4375 286.742188 123.417969 288.851562 117.046875 290.582031 C 109.671875 292.585938 100.304688 293.6875 90.675781 293.6875"/></g><path fill="#035BDA" d="M 187.445312 264.996094 C 165.769531 264.996094 148.203125 270.605469 148.203125 277.519531 C 148.203125 281.34375 153.566406 284.765625 162.023438 287.0625 C 168.871094 288.921875 177.742188 290.042969 187.445312 290.042969 C 197.140625 290.042969 206.015625 288.921875 212.863281 287.0625 C 221.320312 284.765625 226.683594 281.34375 226.683594 277.519531 C 226.683594 270.605469 209.117188 264.996094 187.445312 264.996094"/><g clip-path="url(#d)"><path fill="#035BDA" d="M 187.445312 293.6875 C 177.8125 293.6875 168.445312 292.585938 161.070312 290.582031 C 154.699219 288.851562 150.679688 286.742188 148.203125 284.585938 L 148.203125 296.601562 C 148.203125 303.519531 165.769531 309.125 187.445312 309.125 C 209.117188 309.125 226.683594 303.519531 226.683594 296.601562 L 226.683594 284.585938 C 224.207031 286.742188 220.1875 288.851562 213.8125 290.582031 C 206.441406 292.585938 197.074219 293.6875 187.445312 293.6875"/></g><g clip-path="url(#e)"><path fill="#035BDA" d="M 244.972656 277.519531 C 244.972656 281.34375 250.335938 284.765625 258.792969 287.0625 C 265.640625 288.921875 274.511719 290.042969 284.214844 290.042969 C 293.910156 290.042969 302.785156 288.921875 309.632812 287.0625 C 318.089844 284.765625 323.453125 281.34375 323.453125 277.519531 C 323.453125 270.605469 305.886719 264.996094 284.214844 264.996094 C 262.539062 264.996094 244.972656 270.605469 244.972656 277.519531"/></g><g clip-path="url(#f)"><path fill="#035BDA" d="M 284.214844 293.6875 C 274.582031 293.6875 265.214844 292.585938 257.839844 290.582031 C 251.46875 288.851562 247.449219 286.742188 244.972656 284.585938 L 244.972656 296.601562 C 244.972656 303.519531 262.539062 309.125 284.214844 309.125 C 305.886719 309.125 323.453125 303.519531 323.453125 296.601562 L 323.453125 284.585938 C 320.976562 286.742188 316.957031 288.851562 310.585938 290.582031 C 303.207031 292.585938 293.84375 293.6875 284.214844 293.6875"/></g><path fill="#035BDA" d="M 187.445312 129.109375 C 209.117188 129.109375 226.683594 123.503906 226.683594 116.585938 L 226.683594 104.574219 C 224.207031 106.726562 220.1875 108.835938 213.8125 110.570312 C 206.441406 112.574219 197.074219 113.675781 187.445312 113.675781 C 177.8125 113.675781 168.445312 112.574219 161.070312 110.570312 C 154.699219 108.835938 150.679688 106.726562 148.203125 104.574219 L 148.203125 116.585938 C 148.203125 123.503906 165.769531 129.109375 187.445312 129.109375"/><path fill="#035BDA" d="M 187.445312 148.195312 C 209.117188 148.195312 226.683594 142.589844 226.683594 135.671875 L 226.683594 123.65625 C 224.207031 125.816406 220.1875 127.925781 213.8125 129.652344 C 206.441406 131.65625 197.074219 132.761719 187.445312 132.761719 C 177.8125 132.761719 168.445312 131.65625 161.070312 129.652344 C 154.699219 127.921875 150.679688 125.816406 148.203125 123.65625 L 148.203125 135.671875 C 148.203125 142.589844 165.769531 148.195312 187.445312 148.195312"/><path fill="#035BDA" d="M 187.445312 167.515625 C 209.117188 167.515625 226.683594 161.910156 226.683594 154.992188 L 226.683594 142.976562 C 224.207031 145.132812 220.1875 147.246094 213.8125 148.972656 C 206.441406 150.976562 197.074219 152.082031 187.445312 152.082031 C 177.8125 152.082031 168.445312 150.976562 161.070312 148.972656 C 154.699219 147.242188 150.679688 145.132812 148.203125 142.976562 L 148.203125 154.992188 C 148.203125 161.910156 165.769531 167.515625 187.445312 167.515625"/><path fill="#035BDA" d="M 187.441406 232.792969 C 185.289062 232.792969 183.542969 234.542969 183.542969 236.703125 L 183.542969 249.085938 C 183.542969 251.242188 185.289062 252.992188 187.441406 252.992188 C 189.597656 252.992188 191.34375 251.242188 191.34375 249.085938 L 191.34375 236.703125 C 191.34375 234.542969 189.597656 232.792969 187.441406 232.792969"/><path fill="#035BDA" d="M 191.34375 219.175781 L 194.234375 219.175781 C 196.386719 219.175781 198.132812 217.425781 198.132812 215.265625 C 198.132812 213.109375 196.386719 211.359375 194.234375 211.359375 L 191.34375 211.359375 L 191.34375 208.570312 C 191.34375 206.414062 189.597656 204.664062 187.441406 204.664062 C 185.289062 204.664062 183.542969 206.414062 183.542969 208.570312 L 183.542969 211.359375 L 181.75 211.359375 C 179.59375 211.359375 177.847656 213.109375 177.847656 215.265625 C 177.847656 217.425781 179.59375 219.175781 181.75 219.175781 L 183.542969 219.175781 L 183.542969 221.074219 C 183.542969 223.230469 185.289062 224.980469 187.441406 224.980469 C 189.597656 224.980469 191.34375 223.230469 191.34375 221.074219 L 191.34375 219.175781"/><path fill="#035BDA" d="M 187.441406 196.851562 C 189.597656 196.851562 191.34375 195.101562 191.34375 192.941406 L 191.34375 180.441406 C 191.34375 178.28125 189.597656 176.53125 187.441406 176.53125 C 185.289062 176.53125 183.542969 178.28125 183.542969 180.441406 L 183.542969 192.941406 C 183.542969 195.101562 185.289062 196.851562 187.441406 196.851562"/><path fill="#035BDA" d="M 288.113281 249.085938 L 288.113281 237.679688 C 288.113281 235.523438 286.367188 233.773438 284.210938 233.773438 C 282.058594 233.773438 280.308594 235.523438 280.308594 237.679688 L 280.308594 249.085938 C 280.308594 251.242188 282.058594 252.992188 284.210938 252.992188 C 286.367188 252.992188 288.113281 251.242188 288.113281 249.085938"/><path fill="#035BDA" d="M 131.8125 211.359375 L 119.328125 211.359375 C 117.171875 211.359375 115.425781 213.109375 115.425781 215.265625 C 115.425781 217.425781 117.171875 219.175781 119.328125 219.175781 L 131.8125 219.175781 C 133.964844 219.175781 135.710938 217.425781 135.710938 215.265625 C 135.710938 213.109375 133.964844 211.359375 131.8125 211.359375"/><path fill="#035BDA" d="M 275.382812 219.175781 L 280.316406 219.175781 C 280.445312 221.214844 282.136719 222.835938 284.210938 222.835938 C 286.367188 222.835938 288.113281 221.085938 288.113281 218.925781 L 288.113281 215.265625 C 288.113281 213.109375 286.367188 211.359375 284.210938 211.359375 L 275.382812 211.359375 C 273.226562 211.359375 271.480469 213.109375 271.480469 215.265625 C 271.480469 217.425781 273.226562 219.175781 275.382812 219.175781"/><path fill="#035BDA" d="M 260.554688 215.265625 C 260.554688 213.109375 258.808594 211.359375 256.65625 211.359375 L 244.171875 211.359375 C 242.015625 211.359375 240.269531 213.109375 240.269531 215.265625 C 240.269531 217.425781 242.015625 219.175781 244.171875 219.175781 L 256.65625 219.175781 C 258.808594 219.175781 260.554688 217.425781 260.554688 215.265625"/><path fill="#035BDA" d="M 163.023438 219.175781 C 165.175781 219.175781 166.925781 217.425781 166.925781 215.265625 C 166.925781 213.109375 165.175781 211.359375 163.023438 211.359375 L 150.539062 211.359375 C 148.382812 211.359375 146.636719 213.109375 146.636719 215.265625 C 146.636719 217.425781 148.382812 219.175781 150.539062 219.175781 L 163.023438 219.175781"/><path fill="#035BDA" d="M 225.445312 211.359375 L 212.960938 211.359375 C 210.804688 211.359375 209.058594 213.109375 209.058594 215.265625 C 209.058594 217.425781 210.804688 219.175781 212.960938 219.175781 L 225.445312 219.175781 C 227.597656 219.175781 229.34375 217.425781 229.34375 215.265625 C 229.34375 213.109375 227.597656 211.359375 225.445312 211.359375"/><path fill="#035BDA" d="M 90.671875 252.992188 C 92.828125 252.992188 94.574219 251.242188 94.574219 249.085938 L 94.574219 236.582031 C 94.574219 234.421875 92.828125 232.675781 90.671875 232.675781 C 88.519531 232.675781 86.773438 234.421875 86.773438 236.582031 L 86.773438 249.085938 C 86.773438 251.242188 88.519531 252.992188 90.671875 252.992188"/><path fill="#035BDA" d="M 90.671875 221.734375 C 92.355469 221.734375 93.789062 220.667969 94.335938 219.175781 L 100.601562 219.175781 C 102.753906 219.175781 104.5 217.425781 104.5 215.265625 C 104.5 213.109375 102.753906 211.359375 100.601562 211.359375 L 90.671875 211.359375 C 88.519531 211.359375 86.773438 213.109375 86.773438 215.265625 L 86.773438 217.828125 C 86.773438 219.988281 88.519531 221.734375 90.671875 221.734375"/></svg>