<?xml version="1.0" encoding="UTF-8"?><svg xmlns="http://www.w3.org/2000/svg" xmlns:xlink="http://www.w3.org/1999/xlink" width="810" zoomAndPan="magnify" viewBox="0 0 810 809.999993" height="809.999993" preserveAspectRatio="xMidYMid meet" version="1.0"><defs><clipPath id="clip-0"><path d="M 16.480469 16.480469 L 793.480469 16.480469 L 793.480469 793.480469 L 16.480469 793.480469 Z M 16.480469 16.480469 " clip-rule="nonzero"/></clipPath></defs><g clip-path="url(#clip-0)"><path fill="rgb(100%, 100%, 100%)" d="M 404.8125 86.539062 C 508.492188 86.539062 520.75 86.878906 561.777344 88.75 C 599.574219 90.453125 620.171875 96.753906 633.960938 102.199219 C 652.007812 109.179688 664.945312 117.691406 678.566406 131.3125 C 692.1875 144.933594 700.527344 157.871094 707.679688 175.917969 C 712.957031 189.535156 719.253906 210.136719 721.128906 248.101562 C 723 289.128906 723.339844 301.386719 723.339844 405.066406 C 723.339844 508.746094 723 521.003906 721.128906 562.035156 C 719.425781 599.828125 713.125 620.425781 707.679688 634.21875 C 700.699219 652.261719 692.1875 665.203125 678.566406 678.820312 C 664.945312 692.441406 652.007812 700.785156 633.960938 707.933594 C 620.34375 713.210938 599.742188 719.511719 561.777344 721.382812 C 520.75 723.253906 508.492188 723.597656 404.8125 723.597656 C 301.132812 723.597656 288.875 723.253906 247.84375 721.382812 C 210.050781 719.679688 189.453125 713.382812 175.660156 707.933594 C 157.617188 700.953125 144.675781 692.441406 131.058594 678.820312 C 117.4375 665.203125 109.09375 652.261719 101.945312 634.21875 C 96.667969 620.597656 90.367188 600 88.496094 562.035156 C 86.625 521.003906 86.28125 508.746094 86.28125 405.066406 C 86.28125 301.386719 86.625 289.128906 88.496094 248.101562 C 90.199219 210.304688 96.496094 189.707031 101.945312 175.917969 C 108.925781 157.871094 117.4375 144.933594 131.058594 131.3125 C 144.675781 117.691406 157.617188 109.351562 175.660156 102.199219 C 189.28125 96.921875 209.878906 90.625 247.84375 88.75 C 288.875 86.878906 301.132812 86.539062 404.8125 86.539062 M 404.8125 16.566406 C 299.257812 16.566406 286.152344 17.078125 244.609375 18.949219 C 203.242188 20.824219 174.980469 27.464844 150.296875 36.996094 C 124.757812 46.871094 103.136719 60.148438 81.515625 81.769531 C 60.066406 103.390625 46.785156 125.011719 36.910156 150.550781 C 27.378906 175.234375 20.738281 203.496094 18.867188 244.867188 C 16.992188 286.234375 16.480469 299.515625 16.480469 404.898438 C 16.480469 510.449219 16.992188 523.558594 18.867188 565.097656 C 20.738281 606.46875 27.378906 634.726562 36.910156 659.414062 C 46.785156 684.949219 60.066406 706.570312 81.6875 728.191406 C 103.308594 749.8125 124.929688 763.09375 150.464844 772.96875 C 175.152344 782.5 203.410156 789.140625 244.78125 791.011719 C 286.152344 792.886719 299.429688 793.398438 404.980469 793.398438 C 510.535156 793.398438 523.644531 792.886719 565.183594 791.011719 C 606.550781 789.140625 634.8125 782.5 659.5 772.96875 C 685.035156 763.09375 706.65625 749.8125 728.277344 728.191406 C 749.898438 706.570312 763.179688 684.949219 773.050781 659.414062 C 782.585938 634.726562 789.226562 606.46875 791.097656 565.097656 C 792.972656 523.726562 793.480469 510.449219 793.480469 404.898438 C 793.480469 299.34375 792.972656 286.234375 791.097656 244.695312 C 789.226562 203.328125 782.585938 175.066406 773.050781 150.378906 C 763.179688 124.84375 749.898438 103.222656 728.277344 81.601562 C 706.65625 59.980469 685.035156 46.699219 659.5 36.828125 C 634.8125 27.292969 606.550781 20.652344 565.183594 18.78125 C 523.644531 17.078125 510.363281 16.566406 404.8125 16.566406 " fill-opacity="1" fill-rule="nonzero"/></g><path fill="rgb(100%, 100%, 100%)" d="M 404.8125 205.539062 C 294.664062 205.539062 205.453125 294.75 205.453125 404.898438 C 205.453125 515.046875 294.832031 604.425781 404.980469 604.425781 C 515.128906 604.425781 604.507812 515.214844 604.507812 404.898438 C 604.339844 294.75 514.960938 205.539062 404.8125 205.539062 M 404.8125 534.453125 C 333.308594 534.453125 275.425781 476.570312 275.425781 405.066406 C 275.425781 333.5625 333.308594 275.679688 404.8125 275.679688 C 476.316406 275.679688 534.199219 333.5625 534.199219 405.066406 C 534.367188 476.398438 476.316406 534.453125 404.8125 534.453125 " fill-opacity="1" fill-rule="nonzero"/><path fill="rgb(100%, 100%, 100%)" d="M 658.816406 197.707031 C 658.816406 223.414062 637.878906 244.355469 612.171875 244.355469 C 586.464844 244.355469 565.523438 223.414062 565.523438 197.707031 C 565.523438 172 586.464844 151.0625 612.171875 151.0625 C 637.878906 151.0625 658.816406 171.832031 658.816406 197.707031 " fill-opacity="1" fill-rule="nonzero"/></svg>