<svg xmlns="http://www.w3.org/2000/svg" width="375" viewBox="0 0 375 375" height="375" version="1.0"><defs><clipPath id="a"><path d="M 167 145 L 313.328125 145 L 313.328125 325 L 167 325 Z M 167 145"/></clipPath><clipPath id="b"><path d="M 83 48.433594 L 247 48.433594 L 247 223 L 83 223 Z M 83 48.433594"/></clipPath><clipPath id="c"><path d="M 61.328125 208 L 173 208 L 173 326.683594 L 61.328125 326.683594 Z M 61.328125 208"/></clipPath></defs><path fill="#FFF" d="M-37.5 -37.5H412.5V412.5H-37.5z"/><path fill="#38B6FF" d="M-37.5 -37.5H412.5V412.5H-37.5z"/><path fill="#C1B6AA" d="M 173.25 150.972656 L 173.25 250.765625 L 261.671875 250.765625 L 261.671875 296.328125 C 261.671875 309.027344 271.949219 319.320312 284.625 319.320312 C 297.296875 319.320312 307.574219 309.027344 307.574219 296.328125 L 307.574219 159.019531 C 307.574219 159.019531 307.574219 154.875 307.574219 150.976562 L 173.25 150.976562 Z M 173.25 150.972656"/><g clip-path="url(#a)"><path fill="#3C3C3C" d="M 284.625 324.949219 C 268.867188 324.949219 256.054688 312.109375 256.054688 296.328125 L 256.054688 256.394531 L 173.25 256.394531 C 170.148438 256.394531 167.632812 253.875 167.632812 250.765625 L 167.632812 150.972656 C 167.632812 147.867188 170.148438 145.347656 173.25 145.347656 L 307.574219 145.347656 C 310.675781 145.347656 313.191406 147.867188 313.191406 150.972656 L 313.191406 296.328125 C 313.191406 312.109375 300.375 324.949219 284.625 324.949219 Z M 178.867188 245.140625 L 261.671875 245.140625 C 264.773438 245.140625 267.289062 247.660156 267.289062 250.765625 L 267.289062 296.328125 C 267.289062 305.902344 275.066406 313.691406 284.625 313.691406 C 294.179688 313.691406 301.957031 305.902344 301.957031 296.328125 L 301.957031 156.601562 L 178.867188 156.601562 Z M 178.867188 245.140625"/></g><path fill="#C1B6AA" d="M 251.816406 312.445312 C 251.71875 312.445312 251.617188 312.453125 251.515625 312.453125 L 251.816406 312.453125 Z M 251.816406 312.445312"/><path fill="#F18846" d="M 156.574219 54.289062 L 102.339844 83.242188 C 102.339844 83.242188 116.941406 99.558594 113.804688 104.792969 C 110.667969 110.027344 89.429688 104.792969 89.429688 104.792969 L 89.429688 166.355469 C 89.429688 166.355469 110.667969 161.121094 113.804688 166.355469 C 116.941406 171.589844 102.339844 187.90625 102.339844 187.90625 L 156.574219 216.859375 C 156.574219 216.859375 160.519531 201.023438 164.996094 201.023438 C 169.476562 201.023438 173.421875 216.859375 173.421875 216.859375 L 227.65625 187.90625 C 227.65625 187.90625 213.054688 171.589844 216.191406 166.355469 C 219.328125 161.121094 240.566406 166.355469 240.566406 166.355469 L 240.566406 104.792969 C 240.566406 104.792969 219.328125 110.027344 216.191406 104.792969 C 213.054688 99.558594 227.65625 83.242188 227.65625 83.242188 L 173.421875 54.289062 C 173.421875 54.289062 169.476562 70.125 164.996094 70.125 C 160.519531 70.125 156.574219 54.289062 156.574219 54.289062 Z M 156.574219 54.289062"/><g clip-path="url(#b)"><path fill="#3C3C3C" d="M 173.421875 222.484375 C 172.644531 222.484375 171.867188 222.324219 171.140625 222 C 169.558594 221.296875 168.390625 219.902344 167.972656 218.21875 C 167.195312 215.117188 166.054688 211.808594 165 209.390625 C 163.941406 211.808594 162.800781 215.121094 162.023438 218.226562 C 161.601562 219.90625 160.433594 221.296875 158.851562 222 C 157.273438 222.703125 155.457031 222.640625 153.929688 221.824219 L 99.699219 192.871094 C 98.175781 192.058594 97.109375 190.589844 96.808594 188.886719 C 96.507812 187.183594 97.003906 185.4375 98.15625 184.152344 C 102.648438 179.125 106.851562 173.011719 108.191406 169.753906 C 107.65625 169.699219 106.96875 169.65625 106.089844 169.65625 C 99.652344 169.65625 90.855469 171.796875 90.769531 171.820312 C 89.09375 172.230469 87.320312 171.847656 85.960938 170.78125 C 84.605469 169.714844 83.808594 168.082031 83.808594 166.355469 L 83.808594 104.792969 C 83.808594 103.0625 84.605469 101.429688 85.960938 100.363281 C 87.320312 99.296875 89.09375 98.914062 90.769531 99.328125 C 90.855469 99.347656 99.652344 101.492188 106.089844 101.492188 C 106.96875 101.492188 107.65625 101.449219 108.191406 101.390625 C 106.851562 98.136719 102.648438 92.023438 98.15625 86.996094 C 97.003906 85.707031 96.507812 83.960938 96.808594 82.257812 C 97.109375 80.558594 98.171875 79.085938 99.695312 78.273438 L 153.929688 49.320312 C 155.457031 48.507812 157.273438 48.441406 158.851562 49.144531 C 160.433594 49.847656 161.601562 51.242188 162.023438 52.925781 C 162.796875 56.027344 163.9375 59.339844 164.996094 61.753906 C 166.054688 59.339844 167.195312 56.027344 167.96875 52.921875 C 168.390625 51.242188 169.558594 49.847656 171.140625 49.148438 C 172.722656 48.445312 174.535156 48.507812 176.0625 49.320312 L 230.296875 78.277344 C 231.820312 79.089844 232.882812 80.558594 233.183594 82.261719 C 233.488281 83.960938 232.988281 85.710938 231.839844 86.996094 C 227.347656 92.023438 223.140625 98.136719 221.804688 101.390625 C 222.335938 101.449219 223.027344 101.492188 223.902344 101.492188 C 229.269531 101.492188 236.78125 99.929688 239.226562 99.328125 C 240.902344 98.917969 242.675781 99.296875 244.03125 100.363281 C 245.390625 101.429688 246.183594 103.0625 246.183594 104.792969 L 246.183594 166.355469 C 246.183594 168.082031 245.390625 169.714844 244.035156 170.78125 C 242.675781 171.847656 240.902344 172.230469 239.226562 171.820312 C 239.140625 171.796875 230.34375 169.65625 223.90625 169.65625 C 223.027344 169.65625 222.339844 169.699219 221.804688 169.753906 C 223.144531 173.007812 227.347656 179.121094 231.839844 184.148438 C 232.992188 185.4375 233.488281 187.183594 233.1875 188.886719 C 232.886719 190.589844 231.820312 192.058594 230.296875 192.871094 L 176.0625 221.824219 C 175.242188 222.265625 174.332031 222.484375 173.421875 222.484375 Z M 111.101562 186.203125 L 153.140625 208.648438 C 157.785156 195.390625 163.089844 195.390625 164.996094 195.390625 C 166.90625 195.390625 172.210938 195.394531 176.855469 208.644531 L 218.894531 186.203125 C 212.726562 178.300781 207.863281 169.316406 211.375 163.457031 C 214.40625 158.398438 221.554688 158.398438 223.90625 158.398438 C 227.542969 158.398438 231.605469 158.914062 234.949219 159.480469 L 234.949219 111.664062 C 231.597656 112.230469 227.527344 112.703125 223.878906 112.746094 C 221.503906 112.746094 214.394531 112.726562 211.375 107.6875 C 207.863281 101.828125 212.726562 92.84375 218.894531 84.941406 L 176.855469 62.5 C 172.210938 75.753906 166.910156 75.753906 165 75.753906 C 163.089844 75.753906 157.789062 75.753906 153.140625 62.5 L 111.105469 84.941406 C 117.273438 92.84375 122.132812 101.828125 118.625 107.6875 C 115.59375 112.746094 108.441406 112.746094 106.09375 112.746094 C 102.457031 112.746094 98.394531 112.230469 95.046875 111.667969 L 95.046875 159.480469 C 98.394531 158.917969 102.457031 158.398438 106.09375 158.398438 C 108.441406 158.398438 115.59375 158.398438 118.625 163.457031 C 122.132812 169.316406 117.269531 178.304688 111.101562 186.203125 Z M 111.101562 186.203125"/></g><path fill="#EA523D" d="M 209.933594 135.574219 C 209.933594 136.785156 209.875 137.996094 209.757812 139.203125 C 209.636719 140.410156 209.460938 141.609375 209.226562 142.796875 C 208.988281 143.988281 208.695312 145.164062 208.34375 146.324219 C 207.992188 147.484375 207.585938 148.625 207.121094 149.746094 C 206.65625 150.867188 206.140625 151.960938 205.570312 153.03125 C 205 154.101562 204.378906 155.140625 203.703125 156.148438 C 203.03125 157.15625 202.3125 158.132812 201.542969 159.070312 C 200.773438 160.007812 199.960938 160.902344 199.105469 161.761719 C 198.25 162.621094 197.355469 163.433594 196.417969 164.203125 C 195.480469 164.972656 194.511719 165.695312 193.503906 166.367188 C 192.496094 167.042969 191.460938 167.664062 190.390625 168.238281 C 189.324219 168.808594 188.230469 169.328125 187.113281 169.789062 C 185.992188 170.253906 184.855469 170.664062 183.695312 171.015625 C 182.539062 171.367188 181.363281 171.660156 180.175781 171.898438 C 178.988281 172.136719 177.792969 172.3125 176.585938 172.429688 C 175.382812 172.550781 174.175781 172.609375 172.964844 172.609375 C 171.753906 172.609375 170.546875 172.550781 169.339844 172.429688 C 168.136719 172.3125 166.9375 172.136719 165.75 171.898438 C 164.5625 171.660156 163.390625 171.367188 162.230469 171.015625 C 161.074219 170.664062 159.933594 170.253906 158.816406 169.789062 C 157.695312 169.328125 156.601562 168.808594 155.535156 168.238281 C 154.46875 167.664062 153.429688 167.042969 152.421875 166.367188 C 151.417969 165.695312 150.445312 164.972656 149.507812 164.203125 C 148.574219 163.433594 147.675781 162.621094 146.820312 161.761719 C 145.964844 160.902344 145.152344 160.007812 144.382812 159.070312 C 143.617188 158.132812 142.894531 157.15625 142.222656 156.148438 C 141.550781 155.140625 140.929688 154.101562 140.359375 153.03125 C 139.785156 151.960938 139.269531 150.867188 138.804688 149.746094 C 138.34375 148.625 137.9375 147.484375 137.585938 146.324219 C 137.234375 145.164062 136.9375 143.988281 136.703125 142.796875 C 136.464844 141.609375 136.289062 140.410156 136.171875 139.203125 C 136.050781 137.996094 135.992188 136.785156 135.992188 135.574219 C 135.992188 134.359375 136.050781 133.148438 136.171875 131.941406 C 136.289062 130.734375 136.464844 129.535156 136.703125 128.347656 C 136.9375 127.15625 137.234375 125.980469 137.585938 124.820312 C 137.9375 123.660156 138.34375 122.519531 138.804688 121.398438 C 139.269531 120.277344 139.785156 119.183594 140.359375 118.113281 C 140.929688 117.042969 141.550781 116.003906 142.222656 114.996094 C 142.894531 113.988281 143.617188 113.015625 144.382812 112.078125 C 145.152344 111.140625 145.964844 110.242188 146.820312 109.382812 C 147.675781 108.527344 148.574219 107.710938 149.507812 106.941406 C 150.445312 106.171875 151.417969 105.453125 152.421875 104.777344 C 153.429688 104.105469 154.46875 103.480469 155.535156 102.910156 C 156.601562 102.335938 157.695312 101.820312 158.816406 101.355469 C 159.933594 100.890625 161.074219 100.484375 162.230469 100.128906 C 163.390625 99.777344 164.5625 99.484375 165.75 99.246094 C 166.9375 99.011719 168.136719 98.832031 169.339844 98.714844 C 170.546875 98.59375 171.753906 98.535156 172.964844 98.535156 C 174.175781 98.535156 175.382812 98.59375 176.585938 98.714844 C 177.792969 98.832031 178.988281 99.011719 180.175781 99.246094 C 181.363281 99.484375 182.539062 99.777344 183.695312 100.128906 C 184.855469 100.484375 185.992188 100.890625 187.113281 101.355469 C 188.230469 101.820312 189.324219 102.335938 190.390625 102.910156 C 191.460938 103.480469 192.496094 104.105469 193.503906 104.777344 C 194.511719 105.453125 195.480469 106.171875 196.417969 106.941406 C 197.355469 107.710938 198.25 108.527344 199.105469 109.382812 C 199.960938 110.242188 200.773438 111.140625 201.542969 112.078125 C 202.3125 113.015625 203.03125 113.988281 203.703125 114.996094 C 204.378906 116.003906 205 117.042969 205.570312 118.113281 C 206.140625 119.183594 206.65625 120.277344 207.121094 121.398438 C 207.585938 122.519531 207.992188 123.660156 208.34375 124.820312 C 208.695312 125.980469 208.988281 127.15625 209.226562 128.347656 C 209.460938 129.535156 209.636719 130.734375 209.757812 131.941406 C 209.875 133.148438 209.933594 134.359375 209.933594 135.574219 Z M 209.933594 135.574219"/><path fill="#FFF" d="M 194.003906 135.574219 C 194.003906 136.523438 193.957031 137.472656 193.863281 138.421875 C 193.769531 139.367188 193.632812 140.308594 193.445312 141.242188 C 193.261719 142.175781 193.03125 143.097656 192.753906 144.007812 C 192.480469 144.917969 192.160156 145.8125 191.796875 146.691406 C 191.433594 147.570312 191.027344 148.429688 190.578125 149.269531 C 190.132812 150.109375 189.644531 150.925781 189.117188 151.714844 C 188.585938 152.507812 188.023438 153.269531 187.417969 154.007812 C 186.816406 154.742188 186.179688 155.445312 185.507812 156.117188 C 184.835938 156.792969 184.132812 157.429688 183.398438 158.035156 C 182.664062 158.636719 181.902344 159.203125 181.113281 159.730469 C 180.324219 160.261719 179.507812 160.75 178.671875 161.199219 C 177.832031 161.648438 176.976562 162.054688 176.097656 162.417969 C 175.21875 162.78125 174.328125 163.101562 173.417969 163.378906 C 172.507812 163.65625 171.589844 163.886719 170.65625 164.070312 C 169.726562 164.257812 168.785156 164.394531 167.839844 164.488281 C 166.894531 164.582031 165.949219 164.628906 165 164.628906 C 164.046875 164.628906 163.101562 164.582031 162.15625 164.488281 C 161.210938 164.394531 160.273438 164.257812 159.339844 164.070312 C 158.410156 163.886719 157.488281 163.65625 156.578125 163.378906 C 155.667969 163.101562 154.777344 162.78125 153.898438 162.417969 C 153.019531 162.054688 152.164062 161.648438 151.324219 161.199219 C 150.488281 160.75 149.675781 160.261719 148.882812 159.730469 C 148.09375 159.203125 147.332031 158.636719 146.597656 158.035156 C 145.863281 157.429688 145.160156 156.792969 144.488281 156.117188 C 143.816406 155.445312 143.179688 154.742188 142.578125 154.007812 C 141.976562 153.269531 141.410156 152.507812 140.882812 151.714844 C 140.355469 150.925781 139.867188 150.109375 139.417969 149.269531 C 138.96875 148.429688 138.566406 147.570312 138.203125 146.691406 C 137.835938 145.8125 137.519531 144.917969 137.242188 144.007812 C 136.964844 143.097656 136.734375 142.175781 136.550781 141.242188 C 136.367188 140.308594 136.226562 139.367188 136.132812 138.421875 C 136.039062 137.472656 135.992188 136.523438 135.992188 135.574219 C 135.992188 134.621094 136.039062 133.671875 136.132812 132.726562 C 136.226562 131.777344 136.367188 130.835938 136.550781 129.902344 C 136.734375 128.972656 136.964844 128.050781 137.242188 127.136719 C 137.519531 126.226562 137.835938 125.332031 138.203125 124.453125 C 138.566406 123.574219 138.96875 122.714844 139.417969 121.875 C 139.867188 121.035156 140.355469 120.222656 140.882812 119.429688 C 141.410156 118.640625 141.976562 117.875 142.578125 117.140625 C 143.179688 116.402344 143.816406 115.699219 144.488281 115.027344 C 145.160156 114.355469 145.863281 113.714844 146.597656 113.113281 C 147.332031 112.507812 148.09375 111.941406 148.882812 111.414062 C 149.675781 110.882812 150.488281 110.394531 151.324219 109.949219 C 152.164062 109.5 153.019531 109.09375 153.898438 108.726562 C 154.777344 108.363281 155.667969 108.042969 156.578125 107.769531 C 157.488281 107.492188 158.410156 107.261719 159.339844 107.074219 C 160.273438 106.890625 161.210938 106.75 162.15625 106.65625 C 163.101562 106.5625 164.046875 106.515625 165 106.515625 C 165.949219 106.515625 166.894531 106.5625 167.839844 106.65625 C 168.785156 106.75 169.726562 106.890625 170.65625 107.074219 C 171.589844 107.261719 172.507812 107.492188 173.417969 107.769531 C 174.328125 108.042969 175.21875 108.363281 176.097656 108.726562 C 176.976562 109.09375 177.832031 109.5 178.671875 109.949219 C 179.507812 110.394531 180.324219 110.882812 181.113281 111.414062 C 181.902344 111.941406 182.664062 112.507812 183.398438 113.113281 C 184.132812 113.714844 184.835938 114.355469 185.507812 115.027344 C 186.179688 115.699219 186.816406 116.402344 187.417969 117.140625 C 188.023438 117.875 188.585938 118.640625 189.117188 119.429688 C 189.644531 120.222656 190.132812 121.035156 190.578125 121.875 C 191.027344 122.714844 191.433594 123.574219 191.796875 124.453125 C 192.160156 125.332031 192.480469 126.226562 192.753906 127.136719 C 193.03125 128.050781 193.261719 128.972656 193.445312 129.902344 C 193.632812 130.835938 193.769531 131.777344 193.863281 132.726562 C 193.957031 133.671875 194.003906 134.621094 194.003906 135.574219 Z M 194.003906 135.574219"/><path fill="#3C3C3C" d="M 165 170.257812 C 145.90625 170.257812 130.375 154.699219 130.375 135.574219 C 130.375 116.449219 145.90625 100.886719 165 100.886719 C 184.089844 100.886719 199.621094 116.449219 199.621094 135.574219 C 199.621094 154.699219 184.089844 170.257812 165 170.257812 Z M 165 112.144531 C 152.101562 112.144531 141.609375 122.65625 141.609375 135.574219 C 141.609375 148.492188 152.101562 159 165 159 C 177.894531 159 188.386719 148.492188 188.386719 135.574219 C 188.386719 122.652344 177.894531 112.144531 165 112.144531 Z M 165 112.144531"/><path fill="#FFD651" d="M 111.265625 214.125 L 75.671875 233.128906 C 75.671875 233.128906 85.253906 243.839844 83.195312 247.273438 C 81.136719 250.707031 67.195312 247.273438 67.195312 247.273438 L 67.195312 287.679688 C 67.195312 287.679688 81.136719 284.242188 83.195312 287.679688 C 85.253906 291.113281 75.671875 301.824219 75.671875 301.824219 L 111.265625 320.828125 C 111.265625 320.828125 113.855469 310.433594 116.796875 310.433594 C 119.734375 310.433594 122.328125 320.828125 122.328125 320.828125 L 157.921875 301.824219 C 157.921875 301.824219 148.339844 291.113281 150.398438 287.679688 C 152.457031 284.242188 166.398438 287.679688 166.398438 287.679688 L 166.398438 247.273438 C 166.398438 247.273438 152.457031 250.707031 150.398438 247.273438 C 148.339844 243.839844 157.921875 233.128906 157.921875 233.128906 L 122.328125 214.125 C 122.328125 214.125 119.734375 224.519531 116.796875 224.519531 C 113.855469 224.519531 111.265625 214.125 111.265625 214.125 Z M 111.265625 214.125"/><g clip-path="url(#c)"><path fill="#3C3C3C" d="M 122.328125 326.457031 C 121.550781 326.457031 120.773438 326.296875 120.042969 325.972656 C 118.464844 325.269531 117.296875 323.875 116.878906 322.195312 C 116.851562 322.09375 116.824219 321.988281 116.796875 321.882812 C 116.769531 321.988281 116.746094 322.089844 116.71875 322.191406 C 116.300781 323.875 115.132812 325.265625 113.550781 325.972656 C 111.96875 326.675781 110.152344 326.609375 108.625 325.796875 L 73.027344 306.792969 C 71.503906 305.976562 70.441406 304.507812 70.140625 302.804688 C 69.839844 301.101562 70.335938 299.355469 71.488281 298.070312 C 73.25 296.09375 75.007812 293.769531 76.234375 291.867188 C 73.210938 292.117188 69.800781 292.835938 68.539062 293.144531 C 66.863281 293.558594 65.089844 293.179688 63.730469 292.109375 C 62.371094 291.042969 61.578125 289.410156 61.578125 287.683594 L 61.578125 247.277344 C 61.578125 245.546875 62.371094 243.914062 63.730469 242.847656 C 65.089844 241.78125 66.863281 241.398438 68.539062 241.8125 C 69.804688 242.121094 73.222656 242.839844 76.234375 243.089844 C 75.003906 241.183594 73.25 238.863281 71.484375 236.886719 C 70.335938 235.597656 69.839844 233.847656 70.140625 232.148438 C 70.441406 230.445312 71.503906 228.976562 73.027344 228.164062 L 108.625 209.160156 C 110.152344 208.34375 111.96875 208.28125 113.546875 208.984375 C 115.128906 209.6875 116.296875 211.082031 116.714844 212.765625 C 116.742188 212.867188 116.769531 212.96875 116.796875 213.074219 C 116.824219 212.96875 116.847656 212.867188 116.875 212.761719 C 117.292969 211.082031 118.460938 209.6875 120.042969 208.984375 C 121.625 208.28125 123.4375 208.347656 124.964844 209.160156 L 160.5625 228.164062 C 162.085938 228.976562 163.148438 230.445312 163.453125 232.152344 C 163.753906 233.855469 163.253906 235.601562 162.101562 236.886719 C 160.339844 238.863281 158.585938 241.183594 157.355469 243.085938 C 160.371094 242.839844 163.785156 242.121094 165.054688 241.808594 C 166.730469 241.398438 168.503906 241.78125 169.863281 242.847656 C 171.21875 243.914062 172.011719 245.546875 172.011719 247.277344 L 172.011719 287.683594 C 172.011719 289.410156 171.21875 291.042969 169.859375 292.109375 C 168.503906 293.179688 166.730469 293.5625 165.050781 293.148438 C 163.785156 292.835938 160.371094 292.117188 157.355469 291.867188 C 158.585938 293.773438 160.339844 296.09375 162.105469 298.070312 C 163.253906 299.359375 163.75 301.105469 163.449219 302.808594 C 163.148438 304.507812 162.085938 305.976562 160.5625 306.792969 L 124.96875 325.796875 C 124.144531 326.234375 123.238281 326.457031 122.328125 326.457031 Z M 116.796875 304.804688 C 118.273438 304.804688 122.199219 304.804688 125.582031 312.714844 L 149.265625 300.066406 C 142.265625 290.316406 144.695312 286.261719 145.582031 284.785156 C 148.132812 280.523438 153.648438 280.523438 155.460938 280.523438 C 157.1875 280.523438 159.042969 280.691406 160.777344 280.921875 L 160.777344 254.03125 C 159.035156 254.261719 157.195312 254.429688 155.4375 254.429688 C 153.597656 254.429688 148.121094 254.410156 145.582031 250.171875 C 144.695312 248.691406 142.261719 244.636719 149.265625 234.886719 L 125.582031 222.242188 C 122.199219 230.148438 118.273438 230.148438 116.796875 230.148438 C 115.320312 230.148438 111.390625 230.148438 108.011719 222.242188 L 84.324219 234.886719 C 91.328125 244.636719 88.898438 248.691406 88.011719 250.171875 C 85.460938 254.429688 79.945312 254.429688 78.132812 254.429688 C 76.40625 254.429688 74.550781 254.261719 72.816406 254.03125 L 72.816406 280.921875 C 74.550781 280.691406 76.40625 280.523438 78.132812 280.523438 C 79.945312 280.523438 85.460938 280.523438 88.011719 284.785156 C 88.898438 286.261719 91.328125 290.316406 84.324219 300.066406 L 108.011719 312.710938 C 111.390625 304.804688 115.320312 304.804688 116.796875 304.804688 Z M 116.796875 304.804688"/></g><path fill="#FFF" d="M 141.347656 267.476562 C 141.347656 268.28125 141.308594 269.085938 141.226562 269.886719 C 141.148438 270.6875 141.03125 271.484375 140.875 272.273438 C 140.71875 273.066406 140.523438 273.84375 140.289062 274.617188 C 140.054688 275.386719 139.785156 276.144531 139.476562 276.886719 C 139.171875 277.632812 138.828125 278.359375 138.449219 279.070312 C 138.070312 279.78125 137.65625 280.46875 137.210938 281.140625 C 136.761719 281.808594 136.285156 282.457031 135.773438 283.078125 C 135.265625 283.699219 134.726562 284.296875 134.15625 284.867188 C 133.585938 285.4375 132.992188 285.976562 132.371094 286.488281 C 131.75 287 131.105469 287.476562 130.4375 287.925781 C 129.769531 288.371094 129.078125 288.785156 128.371094 289.164062 C 127.660156 289.546875 126.933594 289.890625 126.191406 290.199219 C 125.449219 290.503906 124.691406 290.777344 123.921875 291.011719 C 123.15625 291.246094 122.375 291.441406 121.585938 291.597656 C 120.796875 291.753906 120.003906 291.871094 119.203125 291.949219 C 118.402344 292.03125 117.601562 292.070312 116.796875 292.070312 C 115.992188 292.070312 115.191406 292.03125 114.390625 291.949219 C 113.589844 291.871094 112.796875 291.753906 112.007812 291.597656 C 111.21875 291.441406 110.441406 291.246094 109.671875 291.011719 C 108.902344 290.777344 108.144531 290.503906 107.402344 290.199219 C 106.660156 289.890625 105.933594 289.546875 105.226562 289.164062 C 104.515625 288.785156 103.828125 288.371094 103.160156 287.925781 C 102.492188 287.476562 101.84375 287 101.222656 286.488281 C 100.601562 285.976562 100.007812 285.4375 99.4375 284.867188 C 98.871094 284.296875 98.332031 283.699219 97.820312 283.078125 C 97.3125 282.457031 96.832031 281.808594 96.386719 281.140625 C 95.9375 280.46875 95.527344 279.78125 95.148438 279.070312 C 94.769531 278.359375 94.425781 277.632812 94.117188 276.886719 C 93.808594 276.144531 93.539062 275.386719 93.304688 274.617188 C 93.074219 273.84375 92.878906 273.066406 92.71875 272.273438 C 92.5625 271.484375 92.445312 270.6875 92.367188 269.886719 C 92.289062 269.085938 92.25 268.28125 92.25 267.476562 C 92.25 266.671875 92.289062 265.867188 92.367188 265.066406 C 92.445312 264.265625 92.5625 263.46875 92.71875 262.679688 C 92.878906 261.890625 93.074219 261.109375 93.304688 260.339844 C 93.539062 259.566406 93.808594 258.808594 94.117188 258.066406 C 94.425781 257.320312 94.769531 256.59375 95.148438 255.882812 C 95.527344 255.175781 95.9375 254.484375 96.386719 253.8125 C 96.832031 253.144531 97.3125 252.5 97.820312 251.875 C 98.332031 251.253906 98.871094 250.65625 99.4375 250.085938 C 100.007812 249.519531 100.601562 248.976562 101.222656 248.46875 C 101.84375 247.957031 102.492188 247.476562 103.160156 247.03125 C 103.828125 246.582031 104.515625 246.167969 105.226562 245.789062 C 105.933594 245.410156 106.660156 245.066406 107.402344 244.757812 C 108.144531 244.449219 108.902344 244.175781 109.671875 243.945312 C 110.441406 243.710938 111.21875 243.515625 112.007812 243.355469 C 112.796875 243.199219 113.589844 243.082031 114.390625 243.003906 C 115.191406 242.925781 115.992188 242.886719 116.796875 242.886719 C 117.601562 242.886719 118.402344 242.925781 119.203125 243.003906 C 120.003906 243.082031 120.796875 243.199219 121.585938 243.355469 C 122.375 243.515625 123.15625 243.710938 123.921875 243.945312 C 124.691406 244.175781 125.449219 244.449219 126.191406 244.757812 C 126.933594 245.066406 127.660156 245.410156 128.371094 245.789062 C 129.078125 246.167969 129.769531 246.582031 130.4375 247.03125 C 131.105469 247.476562 131.75 247.957031 132.371094 248.46875 C 132.992188 248.976562 133.585938 249.519531 134.15625 250.085938 C 134.726562 250.65625 135.265625 251.253906 135.773438 251.875 C 136.285156 252.5 136.761719 253.144531 137.210938 253.8125 C 137.65625 254.484375 138.070312 255.175781 138.449219 255.882812 C 138.828125 256.59375 139.171875 257.320312 139.476562 258.066406 C 139.785156 258.808594 140.054688 259.566406 140.289062 260.339844 C 140.523438 261.109375 140.71875 261.890625 140.875 262.679688 C 141.03125 263.46875 141.148438 264.265625 141.226562 265.066406 C 141.308594 265.867188 141.347656 266.671875 141.347656 267.476562 Z M 141.347656 267.476562"/><path fill="#3C3C3C" d="M 116.796875 297.695312 C 100.164062 297.695312 86.628906 284.140625 86.628906 267.476562 C 86.628906 250.8125 100.164062 237.257812 116.796875 237.257812 C 133.429688 237.257812 146.964844 250.8125 146.964844 267.476562 C 146.964844 284.140625 133.429688 297.695312 116.796875 297.695312 Z M 116.796875 248.511719 C 106.359375 248.511719 97.867188 257.019531 97.867188 267.476562 C 97.867188 277.933594 106.359375 286.441406 116.796875 286.441406 C 127.234375 286.441406 135.726562 277.933594 135.726562 267.476562 C 135.726562 257.019531 127.234375 248.511719 116.796875 248.511719 Z M 116.796875 248.511719"/><path fill="#FFF" d="M 261.671875 296.328125 L 261.671875 213.820312 C 261.671875 213.820312 261.671875 200.671875 261.671875 188.214844 L 137.519531 188.214844 L 137.519531 319.320312 L 281.273438 319.320312 C 281.640625 319.320312 282 319.28125 282.351562 319.207031 C 270.742188 318.0625 261.671875 308.261719 261.671875 296.328125 Z M 261.671875 296.328125"/><path fill="#3C3C3C" d="M 281.269531 324.949219 L 137.519531 324.949219 C 134.417969 324.949219 131.902344 322.429688 131.902344 319.320312 L 131.902344 188.214844 C 131.902344 185.109375 134.417969 182.589844 137.519531 182.589844 L 261.671875 182.589844 C 264.773438 182.589844 267.289062 185.109375 267.289062 188.214844 L 267.289062 296.328125 C 267.289062 305.300781 274 312.730469 282.902344 313.605469 C 285.652344 313.875 287.800781 316.117188 287.960938 318.882812 C 288.117188 321.648438 286.242188 324.121094 283.539062 324.707031 C 282.800781 324.867188 282.039062 324.949219 281.269531 324.949219 Z M 143.136719 313.691406 L 261.863281 313.691406 C 258.203125 308.871094 256.054688 302.847656 256.054688 296.328125 L 256.054688 193.84375 L 143.136719 193.84375 Z M 143.136719 313.691406"/><path fill="#3C3C3C" d="M 230.417969 293.929688 L 190.660156 293.929688 C 187.554688 293.929688 185.039062 291.410156 185.039062 288.304688 C 185.039062 285.195312 187.554688 282.675781 190.660156 282.675781 L 230.417969 282.675781 C 233.519531 282.675781 236.035156 285.195312 236.035156 288.304688 C 236.035156 291.410156 233.519531 293.929688 230.417969 293.929688 Z M 230.417969 293.929688"/><path fill="#3C3C3C" d="M 173.582031 293.929688 L 166.398438 293.929688 C 163.296875 293.929688 160.78125 291.410156 160.78125 288.304688 C 160.78125 285.195312 163.296875 282.675781 166.398438 282.675781 L 173.582031 282.675781 C 176.683594 282.675781 179.199219 285.195312 179.199219 288.304688 C 179.199219 291.410156 176.683594 293.929688 173.582031 293.929688 Z M 173.582031 293.929688"/><path fill="#3C3C3C" d="M 230.417969 224.878906 L 190.660156 224.878906 C 187.554688 224.878906 185.039062 222.355469 185.039062 219.25 C 185.039062 216.140625 187.554688 213.621094 190.660156 213.621094 L 230.417969 213.621094 C 233.519531 213.621094 236.035156 216.140625 236.035156 219.25 C 236.035156 222.355469 233.519531 224.878906 230.417969 224.878906 Z M 230.417969 224.878906"/><path fill="#3C3C3C" d="M 173.582031 224.878906 L 166.398438 224.878906 C 163.296875 224.878906 160.78125 222.355469 160.78125 219.25 C 160.78125 216.140625 163.296875 213.621094 166.398438 213.621094 L 173.582031 213.621094 C 176.683594 213.621094 179.199219 216.140625 179.199219 219.25 C 179.199219 222.355469 176.683594 224.878906 173.582031 224.878906 Z M 173.582031 224.878906"/><path fill="#3C3C3C" d="M 206.15625 260.964844 L 166.398438 260.964844 C 163.296875 260.964844 160.78125 258.445312 160.78125 255.339844 C 160.78125 252.230469 163.296875 249.710938 166.398438 249.710938 L 206.15625 249.710938 C 209.257812 249.710938 211.773438 252.230469 211.773438 255.339844 C 211.773438 258.445312 209.257812 260.964844 206.15625 260.964844 Z M 206.15625 260.964844"/><path fill="#3C3C3C" d="M 230.417969 260.964844 L 223.230469 260.964844 C 220.128906 260.964844 217.613281 258.445312 217.613281 255.339844 C 217.613281 252.230469 220.128906 249.710938 223.230469 249.710938 L 230.417969 249.710938 C 233.519531 249.710938 236.035156 252.230469 236.035156 255.339844 C 236.035156 258.445312 233.519531 260.964844 230.417969 260.964844 Z M 230.417969 260.964844"/><path fill="#75695B" d="M 282.789062 162.386719 C 282.789062 164.5625 282.789062 166.875 282.789062 166.875 L 282.789062 292.449219 C 282.789062 296.929688 280.492188 300.871094 277.019531 303.164062 C 279.039062 304.5 281.457031 305.28125 284.058594 305.28125 C 291.132812 305.28125 296.871094 299.535156 296.871094 292.449219 L 296.871094 166.875 C 296.871094 166.875 296.871094 164.5625 296.871094 162.386719 Z M 282.789062 162.386719"/></svg>