<svg xmlns="http://www.w3.org/2000/svg" width="375" viewBox="0 0 375 375" height="375" version="1.0"><defs><clipPath id="a"><path d="M 210 100 L 329.964844 100 L 329.964844 220 L 210 220 Z M 210 100"/></clipPath><clipPath id="b"><path d="M 44.964844 44.964844 L 317 44.964844 L 317 329.964844 L 44.964844 329.964844 Z M 44.964844 44.964844"/></clipPath></defs><path fill="#FFF" d="M-37.5 -37.5H412.5V412.5H-37.5z"/><path fill="#38B6FF" d="M-37.5 -37.5H412.5V412.5H-37.5z"/><g clip-path="url(#a)"><path fill="#FFBA3C" d="M 329.964844 142.5 L 318.867188 139.734375 L 324.738281 129.914062 L 300.175781 105.332031 L 290.351562 111.222656 L 287.585938 100.125 L 252.824219 100.125 L 250.058594 111.222656 L 240.234375 105.332031 L 215.671875 129.914062 L 222.207031 140.847656 L 210.445312 148.121094 L 210.445312 150.636719 L 244.242188 150.5625 C 248.65625 138.246094 261.585938 129.984375 275.933594 132.875 C 286.4375 134.996094 294.984375 143.453125 297.15625 153.957031 C 300.875 171.769531 287.371094 187.464844 270.203125 187.464844 C 258.191406 187.464844 247.976562 179.796875 244.203125 169.074219 L 210.445312 169.074219 L 210.445312 171.644531 L 222.207031 178.914062 L 215.671875 189.851562 L 240.234375 214.414062 L 250.058594 208.542969 L 252.824219 219.640625 L 287.585938 219.640625 L 290.351562 208.542969 L 300.175781 214.414062 L 324.738281 189.851562 L 318.867188 180.027344 L 329.964844 177.265625 L 329.964844 142.5"/></g><path fill="#FFBA3C" d="M 205.851562 63.351562 L 297.785156 63.351562 L 297.785156 86.335938 L 205.851562 86.335938 L 205.851562 63.351562"/><g clip-path="url(#b)"><path d="M 132.300781 109.316406 L 132.300781 100.125 C 132.300781 95.0625 136.433594 90.929688 141.496094 90.929688 C 146.558594 90.929688 150.6875 95.0625 150.6875 100.125 C 150.6875 105.1875 146.558594 109.316406 141.496094 109.316406 Z M 154.261719 140.617188 L 139.59375 155.285156 L 132.300781 155.285156 L 132.300781 118.511719 L 141.496094 118.511719 C 151.640625 118.511719 159.882812 110.269531 159.882812 100.125 C 159.882812 89.980469 151.640625 81.738281 141.496094 81.738281 C 131.351562 81.738281 123.109375 89.980469 123.109375 100.125 L 123.109375 109.316406 L 113.914062 109.316406 L 113.914062 100.125 C 113.914062 89.980469 105.671875 81.738281 95.527344 81.738281 C 85.382812 81.738281 77.140625 89.980469 77.140625 100.125 C 77.140625 110.269531 85.382812 118.511719 95.527344 118.511719 L 104.722656 118.511719 L 104.722656 155.285156 L 97.429688 155.285156 L 82.761719 140.617188 C 73.207031 131.0625 67.945312 118.367188 67.945312 104.722656 C 67.945312 76.835938 90.625 54.15625 118.511719 54.15625 C 146.398438 54.15625 169.074219 76.835938 169.074219 104.863281 C 169.074219 118.367188 163.816406 131.0625 154.261719 140.617188 Z M 123.109375 155.285156 L 113.914062 155.285156 L 113.914062 118.511719 L 123.109375 118.511719 Z M 104.722656 109.316406 L 95.527344 109.316406 C 90.464844 109.316406 86.335938 105.1875 86.335938 100.125 C 86.335938 95.0625 90.464844 90.929688 95.527344 90.929688 C 100.589844 90.929688 104.722656 95.0625 104.722656 100.125 Z M 118.511719 192.058594 C 108.367188 192.058594 100.125 183.816406 100.125 173.671875 L 100.125 164.480469 L 136.898438 164.480469 L 136.898438 173.671875 C 136.898438 183.816406 128.65625 192.058594 118.511719 192.058594 Z M 109.316406 238.027344 L 109.316406 242.625 C 109.316406 250.238281 115.496094 256.414062 123.109375 256.414062 L 187.464844 256.414062 C 195.078125 256.414062 201.253906 250.238281 201.253906 242.625 L 201.253906 238.027344 L 256.414062 238.027344 L 256.414062 251.816406 C 256.414062 259.429688 250.238281 265.609375 242.625 265.609375 L 67.945312 265.609375 C 60.332031 265.609375 54.15625 259.429688 54.15625 251.816406 L 54.15625 238.027344 Z M 173.671875 238.027344 L 192.058594 238.027344 L 192.058594 242.625 C 192.058594 245.15625 189.996094 247.222656 187.464844 247.222656 L 173.671875 247.222656 Z M 146.09375 238.027344 L 164.480469 238.027344 L 164.480469 247.222656 L 146.09375 247.222656 Z M 118.511719 238.027344 L 136.898438 238.027344 L 136.898438 247.222656 L 123.109375 247.222656 C 120.578125 247.222656 118.511719 245.15625 118.511719 242.625 Z M 173.671875 302.382812 L 136.898438 302.382812 L 136.898438 274.800781 L 173.671875 274.800781 Z M 200.175781 293.1875 C 201.917969 293.1875 203.496094 294.160156 204.269531 295.722656 L 207.609375 302.382812 L 182.867188 302.382812 L 182.867188 293.1875 Z M 100.125 320.769531 L 100.125 311.574219 L 210.445312 311.574219 L 210.445312 320.769531 Z M 110.394531 293.1875 L 127.703125 293.1875 L 127.703125 302.382812 L 102.960938 302.382812 L 106.300781 295.722656 C 107.074219 294.160156 108.652344 293.1875 110.394531 293.1875 Z M 187.464844 44.964844 L 187.464844 118.511719 L 176.636719 118.511719 C 177.675781 114.039062 178.269531 109.445312 178.269531 104.722656 C 178.269531 71.773438 151.460938 44.964844 118.511719 44.964844 C 85.5625 44.964844 58.753906 71.773438 58.753906 104.863281 C 58.753906 109.964844 59.453125 114.957031 60.691406 119.769531 C 51.570312 122.855469 44.964844 131.492188 44.964844 141.496094 L 44.964844 251.816406 C 44.964844 264.496094 55.269531 274.800781 67.945312 274.800781 L 127.703125 274.800781 L 127.703125 283.996094 L 110.394531 283.996094 C 105.152344 283.996094 100.429688 286.921875 98.058594 291.609375 L 90.929688 305.882812 L 90.929688 329.964844 L 219.640625 329.964844 L 219.640625 305.882812 L 212.511719 291.609375 C 210.140625 286.921875 205.417969 283.996094 200.175781 283.996094 L 182.867188 283.996094 L 182.867188 274.800781 L 242.625 274.800781 C 255.300781 274.800781 265.609375 264.496094 265.609375 251.816406 L 265.609375 219.640625 L 256.414062 219.640625 L 256.414062 228.835938 L 54.15625 228.835938 L 54.15625 141.496094 C 54.15625 135.480469 58.125 130.289062 63.621094 128.460938 C 66.5625 135.320312 70.800781 141.65625 76.261719 147.117188 L 90.929688 161.785156 L 90.929688 173.671875 C 90.929688 187.320312 100.898438 198.632812 113.914062 200.839844 L 113.914062 205.851562 C 113.914062 213.464844 120.089844 219.640625 127.703125 219.640625 L 146.09375 219.640625 C 153.707031 219.640625 159.882812 213.464844 159.882812 205.851562 L 159.882812 196.65625 C 159.882812 194.125 161.949219 192.058594 164.480469 192.058594 C 167.011719 192.058594 169.074219 194.125 169.074219 196.65625 L 169.074219 205.851562 C 169.074219 213.464844 175.253906 219.640625 182.867188 219.640625 C 190.480469 219.640625 196.65625 213.464844 196.65625 205.851562 L 196.65625 178.269531 C 196.65625 175.738281 198.722656 173.671875 201.253906 173.671875 L 241.117188 173.671875 C 246.394531 184.789062 257.707031 192.058594 270.203125 192.058594 C 279.9375 192.058594 289.042969 187.734375 295.183594 180.171875 C 301.324219 172.613281 303.691406 162.71875 301.664062 153.003906 C 299.113281 140.742188 289.128906 130.847656 276.832031 128.371094 C 261.964844 125.371094 247.492188 132.714844 241.171875 145.984375 L 187.445312 146.09375 L 187.480469 155.285156 L 247.472656 155.160156 L 248.566406 152.125 C 252.445312 141.28125 263.597656 135.085938 275.015625 137.382812 C 283.761719 139.144531 290.855469 146.183594 292.667969 154.890625 C 294.121094 161.875 292.433594 168.96875 288.054688 174.375 C 283.652344 179.777344 277.152344 182.867188 270.203125 182.867188 C 260.472656 182.867188 251.765625 176.707031 248.53125 167.550781 L 247.4375 164.480469 L 201.253906 164.480469 C 193.640625 164.480469 187.464844 170.65625 187.464844 178.269531 L 187.464844 205.851562 C 187.464844 208.382812 185.398438 210.445312 182.867188 210.445312 C 180.335938 210.445312 178.269531 208.382812 178.269531 205.851562 L 178.269531 196.65625 C 178.269531 189.042969 172.09375 182.867188 164.480469 182.867188 C 156.867188 182.867188 150.6875 189.042969 150.6875 196.65625 L 150.6875 205.851562 C 150.6875 208.382812 148.625 210.445312 146.09375 210.445312 L 127.703125 210.445312 C 125.171875 210.445312 123.109375 208.382812 123.109375 205.851562 L 123.109375 200.839844 C 136.125 198.632812 146.09375 187.320312 146.09375 173.671875 L 146.09375 161.785156 L 160.761719 147.117188 C 166.417969 141.460938 170.78125 134.886719 173.761719 127.703125 L 217.878906 127.703125 L 227.054688 118.511719 L 196.65625 118.511719 L 196.65625 54.15625 L 306.980469 54.15625 L 306.980469 123.109375 L 316.171875 123.109375 L 316.171875 44.964844 L 187.464844 44.964844"/></g><path d="M 178.269531 155.285156 L 178.269531 146.09375 L 169.074219 146.09375 L 169.074219 155.285156 L 178.269531 155.285156"/><path d="M 205.851562 63.351562 L 205.851562 72.542969 L 215.042969 72.542969 L 215.042969 63.351562 L 205.851562 63.351562"/><path d="M 297.785156 63.351562 L 224.238281 63.351562 L 224.238281 72.542969 L 297.785156 72.542969 L 297.785156 63.351562"/><path d="M 297.785156 81.738281 L 205.851562 81.738281 L 205.851562 90.929688 L 297.785156 90.929688 L 297.785156 81.738281"/><path d="M 205.851562 109.316406 L 215.042969 109.316406 L 215.042969 100.125 L 205.851562 100.125 L 205.851562 109.316406"/><path d="M 233.429688 109.316406 L 233.429688 100.125 L 224.238281 100.125 L 224.238281 109.316406 L 233.429688 109.316406"/><path d="M 72.542969 173.671875 L 63.351562 173.671875 L 63.351562 182.867188 L 72.542969 182.867188 L 72.542969 173.671875"/><path d="M 63.351562 219.640625 L 72.542969 219.640625 L 72.542969 210.445312 L 63.351562 210.445312 L 63.351562 219.640625"/><path d="M 72.542969 192.058594 L 63.351562 192.058594 L 63.351562 201.253906 L 72.542969 201.253906 L 72.542969 192.058594"/></svg>