<?xml version="1.0" encoding="UTF-8"?><svg xmlns="http://www.w3.org/2000/svg" xmlns:xlink="http://www.w3.org/1999/xlink" width="810" zoomAndPan="magnify" viewBox="0 0 810 809.999993" height="809.999993" preserveAspectRatio="xMidYMid meet" version="1.0"><path fill="rgb(100%, 100%, 100%)" d="M 385.429688 40.589844 L 385.429688 194.941406 L 204.359375 194.941406 C 246.585938 105.890625 312.992188 49.265625 385.429688 40.589844 Z M 385.429688 234.242188 L 385.429688 385.429688 L 159.847656 385.429688 C 161.765625 332.75 171.460938 280.820312 188.101562 234.242188 Z M 105.976562 194.941406 C 138.78125 148.402344 181.992188 110.121094 231.648438 83.222656 C 220.976562 94.867188 210.859375 107.632812 201.34375 121.457031 C 185.996094 143.757812 172.511719 168.441406 161.210938 194.941406 Z M 39.914062 385.429688 C 42.753906 332.734375 57.148438 280.789062 81.828125 234.242188 L 146.496094 234.242188 C 130.976562 281.75 122.257812 332.496094 120.515625 385.429688 Z M 385.429688 424.730469 L 385.429688 575.933594 L 188.101562 575.933594 C 171.46875 529.355469 161.765625 477.417969 159.847656 424.730469 Z M 385.429688 615.234375 L 385.429688 769.570312 C 313 760.894531 246.59375 704.277344 204.367188 615.234375 Z M 161.21875 615.234375 C 172.519531 641.722656 185.996094 666.410156 201.34375 688.695312 C 210.859375 702.527344 220.976562 715.285156 231.648438 726.9375 C 182 700.039062 138.789062 661.765625 105.992188 615.234375 Z M 146.496094 575.933594 L 81.835938 575.933594 C 57.148438 529.386719 42.753906 477.425781 39.914062 424.730469 L 120.515625 424.730469 C 122.265625 477.664062 130.984375 528.417969 146.496094 575.933594 Z M 770.246094 385.429688 L 689.636719 385.429688 C 687.894531 332.496094 679.175781 281.75 663.664062 234.242188 L 728.332031 234.242188 C 753.011719 280.789062 767.402344 332.734375 770.246094 385.429688 Z M 770.246094 424.730469 C 767.394531 477.425781 753.003906 529.386719 728.324219 575.933594 L 663.664062 575.933594 C 679.175781 528.417969 687.894531 477.664062 689.636719 424.730469 Z M 424.730469 194.941406 L 424.730469 40.589844 C 497.167969 49.265625 563.574219 105.890625 605.800781 194.941406 Z M 648.941406 194.941406 C 637.640625 168.441406 624.160156 143.757812 608.816406 121.457031 C 599.300781 107.632812 589.183594 94.867188 578.511719 83.222656 C 628.160156 110.121094 671.375 148.402344 704.183594 194.941406 Z M 650.304688 385.429688 L 424.730469 385.429688 L 424.730469 234.242188 L 622.058594 234.242188 C 638.691406 280.820312 648.394531 332.75 650.304688 385.429688 Z M 424.730469 615.234375 L 605.792969 615.234375 C 563.558594 704.277344 497.160156 760.894531 424.730469 769.570312 Z M 424.730469 575.933594 L 424.730469 424.730469 L 650.304688 424.730469 C 648.394531 477.417969 638.691406 529.355469 622.050781 575.933594 Z M 704.167969 615.234375 C 671.371094 661.765625 628.152344 700.039062 578.511719 726.9375 C 589.183594 715.285156 599.300781 702.527344 608.816406 688.695312 C 624.160156 666.410156 637.632812 641.722656 648.933594 615.234375 Z M 761.425781 212.75 L 761.261719 212.480469 C 759.460938 209.148438 757.488281 205.648438 755.246094 201.804688 L 754.347656 200.214844 C 754.171875 199.898438 753.980469 199.601562 753.769531 199.308594 C 718.585938 139.902344 668.519531 90.101562 608.941406 55.246094 C 547.261719 19.160156 476.765625 0.09375 405.078125 0.09375 C 333.386719 0.09375 262.898438 19.160156 201.21875 55.246094 C 141.59375 90.132812 91.492188 139.996094 56.296875 199.460938 C 56.15625 199.667969 56.027344 199.875 55.898438 200.089844 L 55.757812 200.328125 C 55.734375 200.367188 55.710938 200.414062 55.691406 200.453125 L 55.191406 201.335938 C 19.144531 263.011719 0.0859375 333.460938 0.0859375 405.078125 C 0.0859375 472.007812 16.839844 538.375 48.542969 597.027344 C 48.621094 597.179688 48.695312 597.324219 48.78125 597.472656 L 48.78125 597.480469 C 50.792969 601.1875 52.988281 605.0625 55.480469 609.316406 L 55.851562 609.96875 C 55.972656 610.183594 56.105469 610.398438 56.242188 610.605469 C 91.4375 670.117188 141.5625 720.011719 201.226562 754.914062 C 262.898438 791 333.394531 810.066406 405.078125 810.066406 C 476.765625 810.066406 547.253906 791 608.933594 754.914062 C 668.535156 720.042969 718.613281 670.21875 753.808594 610.78125 C 753.992188 610.519531 754.164062 610.253906 754.324219 609.96875 L 755.070312 608.648438 C 757.378906 604.6875 759.367188 601.179688 761.140625 597.925781 L 761.417969 597.433594 C 761.546875 597.195312 761.671875 596.957031 761.777344 596.71875 C 793.371094 538.144531 810.066406 471.890625 810.066406 405.078125 C 810.066406 338.222656 793.347656 271.929688 761.722656 213.324219 C 761.632812 213.132812 761.523438 212.941406 761.425781 212.75 " fill-opacity="1" fill-rule="nonzero"/></svg>